<?xml version="1.0" encoding="utf-8"?>
<!-- Generator: Adobe Illustrator 27.5.0, SVG Export Plug-In . SVG Version: 6.00 Build 0)  -->
<svg version="1.1" xmlns="http://www.w3.org/2000/svg" xmlns:xlink="http://www.w3.org/1999/xlink" x="0px" y="0px"
	 viewBox="0 0 500 500" style="enable-background:new 0 0 500 500;" xml:space="preserve">
<g id="Background">
	<g>
		<defs>
			<rect id="SVGID_1_" width="500" height="500"/>
		</defs>
		<clipPath id="SVGID_00000117650630244688642200000014662740291677722503_">
			<use xlink:href="#SVGID_1_"  style="overflow:visible;"/>
		</clipPath>
	</g>
</g>
<g id="Objects">
	<path style="fill:#E5ECF2;" d="M77.202,250.88l53.259,30.953c3.357,1.938,7.492,1.938,10.848,0l51.799-29.907
		c2.417-1.395,2.417-4.884,0-6.279l-53.259-30.953c-3.356-1.938-7.492-1.938-10.848,0l-51.799,29.907
		C74.785,245.996,74.785,249.485,77.202,250.88z"/>
	<path style="fill:#E5ECF2;" d="M301.003,248.922l53.26,30.953c3.356,1.938,7.491,1.938,10.848,0l51.8-29.907
		c2.417-1.396,2.417-4.884,0-6.28l-53.259-30.952c-3.357-1.938-7.492-1.938-10.849,0l-51.8,29.906
		C298.586,244.038,298.586,247.527,301.003,248.922z"/>
	<path style="fill:#E5ECF2;" d="M173.847,311.446l71.31,41.442c4.494,2.595,10.031,2.595,14.525,0l69.355-40.042
		c3.236-1.868,3.236-6.539,0-8.408l-71.31-41.442c-4.494-2.595-10.031-2.595-14.525,0l-69.355,40.042
		C170.61,304.907,170.61,309.578,173.847,311.446z"/>
	<path style="fill:#E5ECF2;" d="M74.079,390.525l84.827,49.066c3.356,1.939,7.492,1.939,10.848,0l51.799-29.906
		c2.417-1.395,2.417-4.884,0-6.279l-84.827-49.067c-3.356-1.939-7.492-1.939-10.848,0l-51.799,29.906
		C71.662,385.641,71.662,389.13,74.079,390.525z"/>
	<path style="fill:#E5ECF2;" d="M305.801,382.681l53.259,30.952c3.356,1.938,7.491,1.938,10.849,0l51.799-29.906
		c2.417-1.396,2.417-4.884,0-6.279l-53.259-30.952c-3.356-1.938-7.492-1.938-10.849,0l-51.799,29.906
		C303.383,377.797,303.383,381.285,305.801,382.681z"/>
	<g>
		<g>
			<path style="fill:#5BA5F5;" d="M186.383,234.289l-46.533-27.069c-3.356-1.938-7.492-1.938-10.848,0l-49.489,28.572l-4.124-0.83
				v5.304l0,0c0,1.221,0.604,2.442,1.813,3.14l53.259,30.952c3.357,1.939,7.492,1.939,10.848,0l51.799-29.906
				c1.209-0.698,1.813-1.919,1.813-3.14v-5.304L186.383,234.289z"/>
			<path style="fill:#A5CBF4;" d="M77.202,238.102l53.259,30.952c3.357,1.938,7.492,1.938,10.848,0l51.799-29.906
				c2.417-1.396,2.417-4.885,0-6.28l-53.259-30.952c-3.356-1.938-7.492-1.938-10.848,0l-51.799,29.906
				C74.785,233.217,74.785,236.706,77.202,238.102z"/>
			
				<linearGradient id="SVGID_00000024684262537995163010000002572211628603902348_" gradientUnits="userSpaceOnUse" x1="105.432" y1="222.4599" x2="142.3002" y2="244.5931">
				<stop  offset="0" style="stop-color:#437AB8"/>
				<stop  offset="1" style="stop-color:#437AB8;stop-opacity:0"/>
			</linearGradient>
			<polygon style="opacity:0.1;fill:url(#SVGID_00000024684262537995163010000002572211628603902348_);" points="102.891,240.224 
				82.714,228.634 115.916,209.465 136.093,221.054 			"/>
		</g>
		<g>
			<path style="fill:#2D527B;" d="M107.117,219.974c0,0-0.519,1.901,0.808,2.447s5.07,3.744,7.683,4.017
				c2.613,0.273,2.418-1.443,1.677-2.847c-0.741-1.404-3.588-5.22-3.588-5.22L107.117,219.974z"/>
			<path style="fill:#2D527B;" d="M99.921,224.537c0,0-0.519,1.901,0.808,2.447c1.326,0.546,5.07,3.744,7.683,4.017
				c2.613,0.273,2.418-1.443,1.677-2.847c-0.741-1.404-3.588-5.22-3.588-5.22L99.921,224.537z"/>
			<path style="fill:#CEDFED;" d="M99.251,205.177l0.243,19.129c0,0,1.768,1.196,4.264,0.624c2.496-0.572,3.484-1.768,3.484-1.768
				v-2.964c0,0,1.664,0.417,3.9,0.208c2.236-0.208,3.328-1.092,3.328-1.092l0.312-18.149L99.251,205.177z"/>
			<path style="fill:#CEDFED;" d="M108.646,204.363l-1.404,0.39v15.444c0,0,0.541,0.13,1.404,0.208V204.363z"/>
			<path style="fill:#CEDFED;" d="M114.212,164.198l1.688,9.121l7.021-1.326l0.858,6.085c0,0-8.448,2.418-9.567,1.482
				C113.092,178.623,114.212,164.198,114.212,164.198z"/>
			<path style="fill:#E5ECF2;" d="M109.322,159.304c0,0,3.64,0.052,4.576,3.068c0.936,3.016,0.832,20.281,0.832,22.881
				s0.52,15.809,0.52,15.809s-0.208,1.664-4.888,3.744c-4.68,2.08-12.896,0-12.896,0s0.104-11.955,0.52-20.798
				c0.416-8.843,0-17.164,1.56-19.972C101.106,161.228,105.474,159.564,109.322,159.304z"/>
			<polygon style="fill:#CD8B74;" points="102.782,153.871 102.782,161.228 107.762,166.426 109.183,166.108 108.75,159.98 			"/>
			<path style="fill:#CEDFED;" d="M96.517,192.429l5.616-0.624c0,0-0.937-6.085-0.468-12.09c0.468-6.006,2.432-10.26,1.543-14.254
				c-0.889-3.995-4.039-2.984-5.053,1.15C97.141,170.744,95.893,189.777,96.517,192.429z"/>
			<path style="fill:#E69C83;" d="M102.133,191.805c0,0,0.975,2.652,0.819,3.354c-0.156,0.702-1.482-0.741-1.482-0.741
				s1.109,3.081,0.75,4.134c-0.36,1.053-3.449,2.027-4.673,0.468c-1.225-1.56-1.029-6.591-1.029-6.591L102.133,191.805z"/>
			<path style="fill:#E69C83;" d="M122.921,171.992c0,0,1.846-0.624,3.562-0.936c1.716-0.313,3.068,0.756,3.276,1.808
				c0.208,1.052-2.08,0-2.08,0s0.52,1.416,0.052,2.976c-0.468,1.56-3.952,2.236-3.952,2.236L122.921,171.992z"/>
			<path style="fill:#CEDFED;" d="M109.322,205.18c0.341-0.102,0.671-0.218,0.984-0.354l-1.425-38.651l-0.498,0.112L109.322,205.18z
				"/>
			<polygon style="fill:#CEDFED;" points="108.882,166.175 110.44,167.429 108.75,160.039 			"/>
			<polygon style="fill:#CEDFED;" points="102.782,161.106 106.956,167.956 108.384,166.287 			"/>
			<path style="fill:#E69C83;" d="M103.342,155.456c0,0,0.702,2.548,2.574,3.848c1.872,1.3,3.358,1.768,4.721,1.144
				c1.363-0.624,2.299-1.716,2.065-4.446c-0.234-2.73,0.624-7.098-1.404-9.984c0,0-1.872-2.652-6.045-1.248
				C101.08,146.174,101.86,151.868,103.342,155.456z"/>
			<path style="fill:#E5ECF2;" d="M112.625,150.262c0,0,0.701-0.071,0.428-1.827c-0.273-1.755-1.205-2.769-2.416-3.588
				c-1.211-0.819-3.941-1.209-5.969-0.273c-2.028,0.936-3.237,2.457-3.393,4.758c-0.156,2.301,0.044,2.886,0.88,3.822
				c0.836,0.936,2.123,1.17,2.123,1.17s-0.429-1.404,0.351-1.989c0.78-0.585,1.664-0.039,1.729-1.95
				c0.065-1.911-1.197-4.066-0.775-5.148c0.422-1.082,3.648-0.897,4.428-0.039C110.791,146.057,112.352,147.448,112.625,150.262z"/>
			<path style="fill:#E5ECF2;" d="M112.738,155.005c0,0-0.309-0.134-1.284,0.334c-0.975,0.468-3.549,1.404-3.783,1.794
				c-0.234,0.39-0.5,0.897-0.5,0.897s-1.177-0.507-2.074-1.794c-0.897-1.287-0.819-1.911-0.819-1.911l-2.123-1.521
				c0,0,0.914,4.758,2.786,6.279c1.872,1.521,3.237,2.379,4.992,2.223c1.755-0.156,2.896-1.365,3.184-2.418
				C113.404,157.835,112.738,155.005,112.738,155.005z"/>
			<g style="opacity:0.5;">
				<path style="fill:#F7F1E3;" d="M110.087,153.382c0,0.971-0.591,2.1-1.319,2.52c-0.729,0.42-1.319-0.026-1.319-0.997
					s0.59-2.1,1.319-2.52C109.497,151.964,110.087,152.411,110.087,153.382z"/>
				<path style="fill:#F7F1E3;" d="M113.431,151.451c0,0.971-0.59,2.1-1.319,2.52c-0.729,0.42-1.319-0.026-1.319-0.997
					c0-0.971,0.59-2.099,1.319-2.52C112.841,150.034,113.431,150.48,113.431,151.451z"/>
			</g>
			<path style="fill:#CEDFED;" d="M103.436,191.389l3.71-2.142v4.641c0,1.092-0.583,2.102-1.529,2.648l0,0
				c-0.97,0.56-2.182-0.14-2.182-1.26V191.389z"/>
			<path style="fill:#CEDFED;" d="M110.924,187.085l3.711-2.142v4.641c0,1.092-0.583,2.102-1.529,2.648l0,0
				c-0.97,0.56-2.182-0.14-2.182-1.259V187.085z"/>
		</g>
		<g>
			<polygon style="fill:#DBECFD;" points="102.868,201.744 135.155,220.384 168.357,201.215 136.071,182.574 			"/>
			<g>
				<defs>
					<polygon id="SVGID_00000178927161330165086050000007596043828924565679_" points="102.868,201.744 135.155,220.384 
						168.357,201.215 136.071,182.574 					"/>
				</defs>
				<clipPath id="SVGID_00000021807031485784825570000012629687429265631136_">
					<use xlink:href="#SVGID_00000178927161330165086050000007596043828924565679_"  style="overflow:visible;"/>
				</clipPath>
			</g>
			<polygon style="fill:#62A9F5;" points="102.868,201.744 102.868,240.196 135.155,258.838 135.155,220.384 			"/>
			<polygon style="fill:#A4D0FA;" points="135.155,258.838 168.357,239.668 168.357,201.215 135.155,220.384 			"/>
			<path style="opacity:0.2;fill:#FF528E;" d="M147.43,206.348c-7.17,4.14-18.017,4.589-24.226,1.004
				c-6.21-3.585-5.431-9.848,1.739-13.987c7.17-4.14,18.017-4.589,24.227-1.004C155.379,195.946,154.601,202.208,147.43,206.348z"/>
			<path style="opacity:0.5;fill:#FF528E;" d="M143.875,204.295c-4.903,2.831-12.32,3.138-16.565,0.687
				c-4.246-2.452-3.714-6.733,1.189-9.564c4.902-2.831,12.319-3.138,16.565-0.687C149.31,197.183,148.778,201.465,143.875,204.295z"
				/>
			<g>
				
					<linearGradient id="SVGID_00000077296550013690913800000000404913962646058644_" gradientUnits="userSpaceOnUse" x1="134.4512" y1="273.6107" x2="136.7615" y2="103.2127">
					<stop  offset="0" style="stop-color:#FF528E"/>
					<stop  offset="1" style="stop-color:#FF528E;stop-opacity:0"/>
				</linearGradient>
				<path style="opacity:0.5;fill:url(#SVGID_00000077296550013690913800000000404913962646058644_);" d="M153.352,198.142V88.06
					l-34.323,3.523v109.304c-0.166,2.417,1.201,4.749,4.175,6.466c6.209,3.585,17.056,3.135,24.226-1.004
					C151.492,204.003,153.501,200.977,153.352,198.142z"/>
				
					<linearGradient id="SVGID_00000029766800394275485180000008983934378358925492_" gradientUnits="userSpaceOnUse" x1="136.1883" y1="222.0138" x2="136.1883" y2="114.4448">
					<stop  offset="0" style="stop-color:#FF528E"/>
					<stop  offset="1" style="stop-color:#FF528E;stop-opacity:0"/>
				</linearGradient>
				<path style="opacity:0.5;fill:url(#SVGID_00000029766800394275485180000008983934378358925492_);" d="M147.927,104.768
					c-0.043-1.517-0.984-2.96-2.863-4.045c-4.246-2.452-11.663-2.144-16.565,0.687c-2.851,1.646-4.221,3.782-4.037,5.765v93.296
					c-0.154,1.686,0.777,3.316,2.847,4.512c4.246,2.452,11.663,2.144,16.565-0.687c2.705-1.562,4.076-3.565,4.052-5.459l0.004,0
					v-94.069L147.927,104.768z"/>
				
					<linearGradient id="SVGID_00000033358063799676091960000014583456823113887138_" gradientUnits="userSpaceOnUse" x1="136.1885" y1="208.0609" x2="136.1885" y2="150.3811">
					<stop  offset="0" style="stop-color:#FF528E"/>
					<stop  offset="1" style="stop-color:#FF528E;stop-opacity:0"/>
				</linearGradient>
				<path style="opacity:0.5;fill:url(#SVGID_00000033358063799676091960000014583456823113887138_);" d="M142.483,145.192
					c-0.023-0.813-0.528-1.587-1.535-2.168c-2.277-1.314-6.254-1.15-8.883,0.368c-1.528,0.882-2.263,2.028-2.164,3.091v50.027
					c-0.083,0.903,0.417,1.778,1.526,2.419c2.277,1.314,6.254,1.15,8.883-0.368c1.45-0.837,2.186-1.912,2.173-2.927h0.002v-50.441
					H142.483z"/>
				<path style="opacity:0.5;fill:none;stroke:#FF528E;stroke-width:0.4805;stroke-miterlimit:10;" d="M143.875,153.355
					c-4.903,2.831-12.32,3.138-16.565,0.687c-4.246-2.452-3.714-6.733,1.189-9.564c4.902-2.83,12.319-3.138,16.565-0.686
					C149.31,146.242,148.778,150.524,143.875,153.355z"/>
				<path style="opacity:0.5;fill:none;stroke:#FF528E;stroke-width:0.4805;stroke-miterlimit:10;" d="M143.875,171.278
					c-4.903,2.831-12.32,3.138-16.565,0.686c-4.246-2.451-3.714-6.733,1.189-9.564c4.902-2.831,12.319-3.138,16.565-0.686
					C149.31,164.166,148.778,168.448,143.875,171.278z"/>
				<path style="opacity:0.5;fill:none;stroke:#FF528E;stroke-width:0.4805;stroke-miterlimit:10;" d="M143.875,188.928
					c-4.903,2.831-12.32,3.138-16.565,0.687c-4.246-2.452-3.714-6.733,1.189-9.564c4.902-2.831,12.319-3.138,16.565-0.686
					C149.31,181.815,148.778,186.097,143.875,188.928z"/>
			</g>
		</g>
		<g>
			<path style="fill:#5BA5F5;" d="M410.185,232.331l-46.533-27.069c-3.357-1.938-7.492-1.938-10.849,0l-49.488,28.572l-4.124-0.83
				v5.304l0,0c0,1.221,0.604,2.442,1.813,3.14l53.26,30.953c3.356,1.938,7.491,1.938,10.848,0l51.8-29.907
				c1.208-0.698,1.813-1.919,1.813-3.14v-5.304L410.185,232.331z"/>
			<path style="fill:#A5CBF4;" d="M301.003,236.144l53.26,30.952c3.356,1.938,7.491,1.938,10.848,0l51.8-29.906
				c2.417-1.396,2.417-4.884,0-6.28l-53.259-30.952c-3.357-1.938-7.492-1.938-10.849,0l-51.8,29.906
				C298.586,231.259,298.586,234.748,301.003,236.144z"/>
		</g>
		
			<linearGradient id="SVGID_00000089566937546158179980000001504172754735941261_" gradientUnits="userSpaceOnUse" x1="374.8489" y1="229.0325" x2="426.3303" y2="199.3917">
			<stop  offset="0" style="stop-color:#437AB8"/>
			<stop  offset="1" style="stop-color:#437AB8;stop-opacity:0"/>
		</linearGradient>
		<polygon style="opacity:0.1;fill:url(#SVGID_00000089566937546158179980000001504172754735941261_);" points="389.632,239.023 
			410.611,227.194 378.318,208.533 357.34,220.361 		"/>
		<g>
			<path style="fill:#CEDFED;" d="M378.318,160.944c0,0-8.92,10.042-8.741,13.061c0.178,3.018,3.074,3.035,3.074,3.035l4.345-1.489
				L378.318,160.944z"/>
			<path style="fill:#2D527B;" d="M377.732,153.123c0,0-1.268-0.576-1.315-2.073c-0.049-1.497,0.966-2.076,0.966-2.076
				s-0.082-0.845,0.345-1.52c0.427-0.676,1.538-0.869,1.538-0.869s-0.049-1.038,0.893-1.448c0.941-0.411,1.931,0,1.931,0
				s0.966-1.255,2.27-1.135c1.304,0.121,1.714,1.376,1.714,1.376s1.714-0.097,2.534,0.797c0.821,0.893,0.894,2.124,0.894,2.124
				s1.183,0.265,1.303,1.448c0.121,1.183-0.289,1.979-0.289,1.979s0.579,0.531,0.458,1.883c-0.12,1.352-1.11,2.076-1.11,2.076
				s0.242,0.266,0,0.676c-0.241,0.41-0.489,0.554-0.489,0.554s0.909-0.155,1.616,0.677c0.708,0.833,0.636,2.136,0.636,2.136
				s1.05,0.869,1.194,1.811c0.146,0.941,0,1.629,0,1.629s0.543,0.833,0.398,2.063c-0.145,1.231-1.557,1.811-1.557,1.811l-8.763-8.4
				L377.732,153.123z"/>
			<path style="fill:#2D527B;" d="M382.427,217.044c0,0-3.379,3.403-3.089,4.924c0.289,1.521,3.041,1.218,5.068-0.876
				c2.028-2.093,1.955-2.191,1.955-3.229s-1.168-1.712-1.168-1.712L382.427,217.044z"/>
			<path style="fill:#805749;" d="M387.568,201.547c0,0,0.362,2.969,0.435,5.141c0.06,1.787-1.547,7.887-2.118,9.994
				c-0.129,0.473-0.486,0.844-0.955,0.983c-0.443,0.131-0.973,0.249-1.272,0.174c-0.579-0.145-1.231-0.796-1.231-0.796
				l-0.434-16.148L387.568,201.547z"/>
			<path style="fill:#2D527B;" d="M376.415,214.515c0,0-3.379,3.404-3.09,4.924c0.29,1.521,3.042,1.218,5.069-0.875
				c2.027-2.093,1.955-2.192,1.955-3.229c0-1.037-1.168-1.711-1.168-1.711L376.415,214.515z"/>
			<path style="fill:#805749;" d="M381.557,199.018c0,0,0.362,2.969,0.435,5.142c0.06,1.787-1.547,7.887-2.119,9.994
				c-0.128,0.472-0.485,0.844-0.954,0.983c-0.443,0.132-0.973,0.249-1.272,0.175c-0.579-0.145-1.231-0.797-1.231-0.797
				l-0.435-16.148L381.557,199.018z"/>
			<path style="fill:#CEDFED;" d="M375.413,188.315l0.352,10.046c0,0,1.232,2.1,4.563,3.114c3.331,1.014,8.907,0.362,8.907,0.362
				s1.883-9.704,1.883-11.876C391.117,187.789,375.858,185.148,375.413,188.315z"/>
			<path style="fill:#E5ECF2;" d="M380.183,159.185c0,0-1.723,0.579-2.455,2.1c-0.731,1.52-1.31,6.3-1.745,7.965
				c-0.435,1.665,1.014,4.345,1.014,6.3c0,1.955-2.317,11.224-2.317,11.876c0,0.652,2.57,2.136,3.61,2.736
				c1.04,0.601,2.4-1.578,2.4-1.578s0.579,4.49,3.331,5.069c2.752,0.579,8.617-3.331,8.617-3.331s-0.435-5.214-1.159-7.748
				c-0.724-2.535-1.303-4.634-1.303-4.634l2.462-13.107c0,0-2.607-3.186-6.807-4.128
				C381.631,159.764,380.183,159.185,380.183,159.185z"/>
			<polygon style="fill:#67463A;" points="381.631,159.764 381.95,162.433 382.065,164.013 386.41,161.292 386.164,156.138 			"/>
			<path style="fill:#805749;" d="M377.769,152.088c0,0-0.29,4.659,0.676,6.011c0.966,1.352,1.545,2.607,2.8,2.607
				c1.256,0,3.766-1.738,4.538-2.993c0.772-1.255,0.246-2.245-0.145-3.186c-0.377-0.91-2.221-3.621-4.55-3.995
				C378.989,150.194,377.769,150.808,377.769,152.088z"/>
			<g>
				<path style="fill:#B37C2E;" d="M381.745,184.658l-8.298-2.814c-0.303-0.103-0.616-0.483-0.699-0.849l-3.15-13.876
					c-0.084-0.366,0.095-0.579,0.397-0.477l8.298,2.814c0.304,0.103,0.616,0.483,0.699,0.849l3.151,13.877
					C382.227,184.547,382.048,184.761,381.745,184.658z"/>
				<polygon style="fill:#DBECFD;" points="376.661,169.973 372.154,168.444 371.712,166.498 376.22,168.026 				"/>
			</g>
			<path style="fill:#CEDFED;" d="M392.638,164.833c0,0,1.208,1.376,0.603,4.779c-0.603,3.403-3.597,13.01-5.624,13.686
				c-2.028,0.676-8.631-1.834-8.631-1.834l0.52-3.862l5.492,1.215c0,0,3.332-11.267,5.031-13.091
				C391.73,163.902,392.638,164.833,392.638,164.833z"/>
			<path style="fill:#805749;" d="M379.507,177.602c0,0-0.772-1.618-1.389-1.509c-0.615,0.108,0,1.267,0,1.267
				s-1.665-0.958-2.462-0.516c-0.796,0.443-0.978,2.362,1.05,3.557c1.285,0.757,2.28,1.062,2.28,1.062L379.507,177.602z"/>
			<g>
				<path style="opacity:0.5;fill:#F7F1E3;" d="M379.069,155.433l-1.428-0.825c-0.17-0.098-0.274-0.279-0.274-0.475v-0.832
					c0-0.422,0.457-0.685,0.822-0.475l1.428,0.825c0.17,0.098,0.274,0.279,0.274,0.475v0.832
					C379.892,155.38,379.435,155.644,379.069,155.433z"/>
				<path style="opacity:0.5;fill:#F7F1E3;" d="M382.346,157.325l-1.428-0.824c-0.17-0.098-0.273-0.279-0.273-0.475v-0.832
					c0-0.422,0.456-0.686,0.821-0.475l1.429,0.825c0.169,0.098,0.273,0.279,0.273,0.475v0.831
					C383.168,157.272,382.712,157.536,382.346,157.325z"/>
			</g>
		</g>
		<g>
			<polygon style="fill:#DBECFD;" points="324.137,201.105 356.424,219.746 389.627,200.576 357.34,181.936 			"/>
			<g>
				<defs>
					<polygon id="SVGID_00000026139638123087662470000007569023167579464069_" points="324.137,201.105 356.424,219.746 
						389.627,200.576 357.34,181.936 					"/>
				</defs>
				<clipPath id="SVGID_00000020381198425651296410000014802317915868407206_">
					<use xlink:href="#SVGID_00000026139638123087662470000007569023167579464069_"  style="overflow:visible;"/>
				</clipPath>
			</g>
			<polygon style="fill:#A4D0FA;" points="324.137,201.105 324.137,239.558 356.424,258.199 356.424,219.746 			"/>
			<polygon style="fill:#62A9F5;" points="356.424,258.199 389.627,239.029 389.627,200.576 356.424,219.746 			"/>
			<path style="opacity:0.2;fill:#FFD562;" d="M368.699,205.71c-7.17,4.14-18.017,4.589-24.227,1.004
				c-6.209-3.585-5.431-9.848,1.739-13.987c7.171-4.14,18.018-4.589,24.227-1.004C376.648,195.308,375.869,201.57,368.699,205.71z"
				/>
			<path style="opacity:0.5;fill:#FFD562;" d="M365.144,203.657c-4.902,2.831-12.319,3.138-16.565,0.687
				c-4.246-2.451-3.713-6.733,1.189-9.564c4.903-2.831,12.319-3.138,16.565-0.686C370.579,196.544,370.047,200.826,365.144,203.657z
				"/>
			<g>
				
					<linearGradient id="SVGID_00000035517894679724479160000002176074996812653714_" gradientUnits="userSpaceOnUse" x1="355.7204" y1="272.9717" x2="358.0307" y2="102.5744">
					<stop  offset="0" style="stop-color:#FFD562"/>
					<stop  offset="1" style="stop-color:#FFD562;stop-opacity:0"/>
				</linearGradient>
				<path style="opacity:0.5;fill:url(#SVGID_00000035517894679724479160000002176074996812653714_);" d="M374.621,197.503V87.421
					l-34.322,3.522v109.304c-0.166,2.417,1.2,4.749,4.174,6.465c6.21,3.585,17.057,3.136,24.227-1.004
					C372.761,203.364,374.77,200.338,374.621,197.503z"/>
				
					<linearGradient id="SVGID_00000109708478285533215230000011073220585955230893_" gradientUnits="userSpaceOnUse" x1="357.4571" y1="221.3751" x2="357.4571" y2="113.8063">
					<stop  offset="0" style="stop-color:#FFD562"/>
					<stop  offset="1" style="stop-color:#FFD562;stop-opacity:0"/>
				</linearGradient>
				<path style="opacity:0.5;fill:url(#SVGID_00000109708478285533215230000011073220585955230893_);" d="M369.196,104.129
					c-0.043-1.517-0.984-2.96-2.863-4.044c-4.246-2.451-11.662-2.144-16.565,0.687c-2.851,1.646-4.221,3.783-4.036,5.765v93.296
					c-0.154,1.685,0.776,3.316,2.847,4.511c4.246,2.452,11.663,2.144,16.565-0.687c2.705-1.561,4.077-3.565,4.053-5.459l0.003-0.001
					v-94.069L369.196,104.129z"/>
				
					<linearGradient id="SVGID_00000080189427006757877170000007566497481491522949_" gradientUnits="userSpaceOnUse" x1="357.4574" y1="207.4221" x2="357.4574" y2="149.7425">
					<stop  offset="0" style="stop-color:#FFD562"/>
					<stop  offset="1" style="stop-color:#FFD562;stop-opacity:0"/>
				</linearGradient>
				<path style="opacity:0.5;fill:url(#SVGID_00000080189427006757877170000007566497481491522949_);" d="M363.752,144.553
					c-0.024-0.814-0.528-1.587-1.535-2.168c-2.277-1.314-6.254-1.15-8.883,0.368c-1.528,0.882-2.264,2.028-2.164,3.091v50.027
					c-0.083,0.904,0.416,1.778,1.526,2.419c2.276,1.314,6.254,1.149,8.883-0.368c1.45-0.837,2.185-1.912,2.173-2.927h0.002v-50.441
					H363.752z"/>
				<path style="opacity:0.5;fill:none;stroke:#FFD562;stroke-width:0.4805;stroke-miterlimit:10;" d="M365.144,152.716
					c-4.902,2.831-12.319,3.138-16.565,0.687c-4.246-2.451-3.713-6.733,1.189-9.564c4.903-2.831,12.319-3.138,16.565-0.687
					C370.579,145.604,370.047,149.886,365.144,152.716z"/>
				<path style="opacity:0.5;fill:none;stroke:#FFD562;stroke-width:0.4805;stroke-miterlimit:10;" d="M365.144,170.64
					c-4.902,2.831-12.319,3.138-16.565,0.687c-4.246-2.452-3.713-6.733,1.189-9.564c4.903-2.831,12.319-3.138,16.565-0.687
					C370.579,163.527,370.047,167.809,365.144,170.64z"/>
				<path style="opacity:0.5;fill:none;stroke:#FFD562;stroke-width:0.4805;stroke-miterlimit:10;" d="M365.144,188.289
					c-4.902,2.831-12.319,3.138-16.565,0.687c-4.246-2.452-3.713-6.733,1.189-9.564c4.903-2.831,12.319-3.138,16.565-0.687
					C370.579,181.177,370.047,185.458,365.144,188.289z"/>
			</g>
		</g>
		<g>
			<path style="fill:#2D527B;" d="M324.86,223.997c-1.077,0-2.127-0.56-2.705-1.561c-0.861-1.493-0.35-3.401,1.143-4.262l4.9-2.829
				c1.488-0.862,3.4-0.352,4.263,1.142c0.861,1.492,0.35,3.401-1.142,4.262l-4.9,2.829
				C325.927,223.862,325.391,223.997,324.86,223.997z"/>
		</g>
		<g>
			<path style="fill:#2D527B;" d="M340.598,233.695c-1.078,0-2.127-0.56-2.705-1.561c-0.861-1.492-0.35-3.4,1.143-4.262l4.899-2.829
				c1.488-0.861,3.4-0.352,4.262,1.142c0.861,1.493,0.35,3.4-1.142,4.262l-4.9,2.829
				C341.664,233.561,341.127,233.695,340.598,233.695z"/>
		</g>
		
			<polyline style="fill:none;stroke:#FF528E;stroke-width:2.4961;stroke-linecap:round;stroke-linejoin:round;stroke-miterlimit:10;" points="
			324.017,221.449 324.017,245.171 257.14,284.065 		"/>
		
			<polyline style="fill:none;stroke:#FFD562;stroke-width:2.4961;stroke-linecap:round;stroke-linejoin:round;stroke-miterlimit:10;" points="
			339.753,231.147 339.753,254.869 259.018,301.765 		"/>
		<g>
			<path style="fill:#2D527B;" d="M166.84,228.332c-0.529,0-1.065-0.135-1.557-0.419l-4.9-2.829
				c-1.492-0.862-2.003-2.77-1.142-4.262c0.861-1.493,2.768-2.005,4.262-1.142l4.9,2.829c1.492,0.861,2.003,2.77,1.142,4.262
				C168.967,227.773,167.919,228.332,166.84,228.332z"/>
		</g>
		<g>
			<path style="fill:#2D527B;" d="M151.103,238.03c-0.529,0-1.066-0.135-1.557-0.419l-4.9-2.829
				c-1.492-0.862-2.003-2.77-1.142-4.262c0.861-1.492,2.77-2.006,4.262-1.142l4.9,2.829c1.492,0.862,2.003,2.77,1.142,4.262
				C153.231,237.47,152.182,238.03,151.103,238.03z"/>
		</g>
		
			<polyline style="fill:none;stroke:#FFD562;stroke-width:2.4961;stroke-linecap:round;stroke-linejoin:round;stroke-miterlimit:10;" points="
			167.685,225.784 167.685,249.506 234.562,288.4 		"/>
		
			<polyline style="fill:none;stroke:#59A3F5;stroke-width:2.4961;stroke-linecap:round;stroke-linejoin:round;stroke-miterlimit:10;" points="
			151.948,235.482 151.948,259.204 232.684,306.1 		"/>
		<g>
			<path style="fill:#5BA5F5;" d="M320.031,293.563l-62.305-36.243c-4.494-2.595-10.031-2.595-14.525,0l-66.261,38.256l-5.521-1.111
				v7.102l0,0c0,1.635,0.809,3.27,2.427,4.204l71.309,41.442c4.494,2.595,10.031,2.595,14.525,0l69.355-40.042
				c1.618-0.934,2.428-2.569,2.428-4.204v-7.102L320.031,293.563z"/>
			<path style="fill:#A5CBF4;" d="M173.847,298.668l71.31,41.442c4.494,2.595,10.031,2.595,14.525,0l69.355-40.042
				c3.236-1.869,3.236-6.54,0-8.408l-71.31-41.443c-4.494-2.595-10.031-2.595-14.525,0l-69.355,40.042
				C170.61,292.128,170.61,296.799,173.847,298.668z"/>
			
				<linearGradient id="SVGID_00000026126864968898786270000011965865918371185590_" gradientUnits="userSpaceOnUse" x1="489.2075" y1="311.6126" x2="531.3713" y2="336.9249" gradientTransform="matrix(-1 0 0 1 711.418 0)">
				<stop  offset="0" style="stop-color:#437AB8"/>
				<stop  offset="1" style="stop-color:#437AB8;stop-opacity:0"/>
			</linearGradient>
			<polygon style="opacity:0.1;fill:url(#SVGID_00000026126864968898786270000011965865918371185590_);" points="234.097,333.684 
				251.441,324.087 201.24,294.995 183.895,304.592 			"/>
		</g>
		<g>
			<polygon style="fill:#DBECFD;" points="201.24,235.257 251.441,264.241 303.066,234.436 252.865,205.452 			"/>
			<g>
				<defs>
					<polygon id="SVGID_00000025411587923081162920000015116206638118818199_" points="201.24,235.257 251.441,264.241 
						303.066,234.436 252.865,205.452 					"/>
				</defs>
				<clipPath id="SVGID_00000080899342911041816660000006380276529899100302_">
					<use xlink:href="#SVGID_00000025411587923081162920000015116206638118818199_"  style="overflow:visible;"/>
				</clipPath>
			</g>
			<polygon style="fill:#62A9F5;" points="201.24,235.257 201.24,295.046 251.441,324.029 251.441,264.241 			"/>
			<polygon style="fill:#A4D0FA;" points="251.441,324.029 303.066,294.224 303.066,234.436 251.441,264.241 			"/>
		</g>
		<g>
			<polygon style="fill:#2D527B;" points="245.593,271.601 245.593,288.273 205.077,264.882 205.077,248.209 			"/>
			<g>
				<g>
					<polygon style="fill:#52F894;" points="241.412,275.935 238.854,274.457 238.854,272.901 241.412,274.379 					"/>
					<polygon style="fill:#52F894;" points="228.117,266.703 228.117,268.259 225.56,266.781 225.56,265.226 					"/>
					<polygon style="fill:#52F894;" points="235.084,272.281 233.917,271.607 233.917,268.197 235.084,268.87 					"/>
					<polygon style="fill:#52F894;" points="231.29,265.265 232.116,266.841 231.131,267.585 232.116,269.467 231.29,270.091 
						229.482,266.635 229.483,266.634 229.482,266.632 					"/>
					<polygon style="fill:#52F894;" points="237.676,273.777 236.397,273.039 236.397,271.483 237.676,272.222 					"/>
				</g>
				<g>
					<polygon style="fill:#52F894;" points="234.636,279.692 232.078,278.216 232.078,276.66 234.636,278.137 					"/>
					<polygon style="fill:#52F894;" points="241.602,283.715 240.436,283.041 240.436,279.631 241.602,280.305 					"/>
					<polygon style="fill:#52F894;" points="229.217,273.153 230.384,273.827 230.384,275.682 230.384,277.237 229.217,276.565 
						227.826,275.761 227.826,274.205 229.217,275.008 					"/>
					<polygon style="fill:#52F894;" points="237.809,276.698 238.634,278.274 237.649,279.02 238.634,280.9 237.809,281.524 
						236,278.068 236.001,278.067 236,278.065 					"/>
					<polygon style="fill:#52F894;" points="226.647,273.525 226.647,275.081 225.369,274.342 225.369,272.786 					"/>
				</g>
			</g>
			<g>
				<g>
					<polygon style="fill:#52F894;" points="222.931,265.373 220.373,263.896 220.373,262.34 222.931,263.816 					"/>
					<polygon style="fill:#52F894;" points="209.636,256.142 209.636,257.697 207.078,256.22 207.078,254.664 					"/>
					<polygon style="fill:#52F894;" points="216.603,261.72 215.436,261.046 215.436,257.635 216.603,258.309 					"/>
					<polygon style="fill:#52F894;" points="212.81,254.703 213.634,256.279 212.65,257.023 213.634,258.905 212.81,259.529 
						211,256.073 211.002,256.072 211,256.07 					"/>
					<polygon style="fill:#52F894;" points="219.195,263.216 217.916,262.478 217.916,260.922 219.195,261.66 					"/>
				</g>
				<g>
					<polygon style="fill:#52F894;" points="216.154,269.131 213.597,267.654 213.597,266.099 216.154,267.575 					"/>
					<polygon style="fill:#52F894;" points="223.122,273.153 221.955,272.479 221.955,269.069 223.122,269.743 					"/>
					<polygon style="fill:#52F894;" points="210.736,262.592 211.902,263.266 211.902,265.12 211.902,266.676 210.736,266.002 
						209.345,265.199 209.345,263.644 210.736,264.446 					"/>
					<polygon style="fill:#52F894;" points="219.328,266.137 220.153,267.713 219.168,268.458 220.153,270.339 219.328,270.963 
						217.519,267.507 217.52,267.506 217.519,267.504 					"/>
					<polygon style="fill:#52F894;" points="208.166,262.963 208.166,264.52 206.888,263.78 206.888,262.225 					"/>
				</g>
			</g>
		</g>
		<g>
			<path style="fill:#2D527B;" d="M210.889,289.757c-1.078,0-2.127-0.56-2.705-1.561c-0.861-1.493-0.35-3.4,1.142-4.262l4.9-2.829
				c1.491-0.863,3.401-0.35,4.262,1.142c0.862,1.493,0.351,3.4-1.142,4.263l-4.9,2.828
				C211.955,289.622,211.418,289.757,210.889,289.757z"/>
		</g>
		<g>
			<path style="fill:#2D527B;" d="M226.625,299.454c-1.079,0-2.127-0.56-2.705-1.56c-0.862-1.493-0.351-3.4,1.142-4.263l4.9-2.828
				c1.491-0.864,3.4-0.351,4.262,1.142c0.861,1.493,0.35,3.4-1.142,4.262l-4.9,2.829
				C227.691,299.32,227.154,299.454,226.625,299.454z"/>
		</g>
		
			<linearGradient id="SVGID_00000183957334293127269430000005964647209073576067_" gradientUnits="userSpaceOnUse" x1="196.8209" y1="336.6128" x2="283.8206" y2="71.6134">
			<stop  offset="0" style="stop-color:#59A3F5"/>
			<stop  offset="0.1131" style="stop-color:#6CADF5"/>
			<stop  offset="0.5348" style="stop-color:#ADCFF3"/>
			<stop  offset="0.8418" style="stop-color:#D5E4F2"/>
			<stop  offset="1" style="stop-color:#E5ECF2"/>
		</linearGradient>
		<path style="opacity:0.75;fill:url(#SVGID_00000183957334293127269430000005964647209073576067_);" d="M172.75,158.566v123.008
			c0,2.325,2.517,3.778,4.53,2.615l144.645-83.511c2.936-1.695,4.744-4.827,4.744-8.217V69.454c0-2.325-2.518-3.778-4.531-2.616
			l-144.645,83.511C174.558,152.044,172.75,155.176,172.75,158.566z"/>
		<path style="opacity:0.5;fill:#59A3F5;" d="M172.75,281.574V158.566c0-3.39,1.808-6.523,4.744-8.217l144.645-83.511
			c0.94-0.543,1.988-0.51,2.841-0.089v-0.001l-4.779-2.759l-0.001,0.002c-0.896-0.566-2.077-0.675-3.125-0.07l-144.645,83.511
			c-2.936,1.695-4.744,4.827-4.744,8.217v123.008c0,1.289,0.775,2.308,1.808,2.764l4.58,2.645h0
			C173.293,283.536,172.75,282.651,172.75,281.574z"/>
		<g>
			<g>
				<path style="fill:#59A3F5;" d="M292.514,203.831c-6.637,0-10.926-5.943-10.926-15.141c0-11.867,7.289-25.729,16.248-30.902
					c2.379-1.374,4.713-2.069,6.939-2.069c6.638,0,10.927,5.943,10.927,15.141c0,11.867-7.29,25.729-16.249,30.902
					C297.073,203.135,294.739,203.831,292.514,203.831z M304.774,158.948c-1.651,0-3.441,0.551-5.322,1.637
					c-8.069,4.658-14.634,17.266-14.634,28.104c0,7.236,3.021,11.911,7.695,11.911c1.651,0,3.441-0.551,5.322-1.637
					c8.069-4.659,14.635-17.267,14.635-28.104C312.471,163.624,309.45,158.948,304.774,158.948z"/>
			</g>
			<g>
				<path style="fill:#59A3F5;" d="M305.287,175.939c0,4.892-2.974,10.574-6.643,12.692c-3.669,2.118-6.642-0.13-6.642-5.022
					c0-4.892,2.974-10.574,6.642-12.692C302.313,168.799,305.287,171.047,305.287,175.939z"/>
			</g>
			<g>
				<path style="fill:#B18FFF;" d="M292.503,205.452c-1.984,0-3.869-0.491-5.577-1.477c-4.419-2.551-6.952-8.122-6.952-15.285
					c0-1.784,1.445-3.23,3.229-3.23c1.784,0,3.229,1.447,3.229,3.23c0,4.722,1.393,8.345,3.723,9.691
					c2.261,1.301,4.984,0.275,6.874-0.815c7.494-4.327,13.827-16.557,13.827-26.706c0-4.722-1.392-8.345-3.724-9.69
					c-2.257-1.304-4.984-0.277-6.874,0.814c-1.543,0.892-3.52,0.363-4.412-1.182c-0.892-1.545-0.363-3.52,1.183-4.412
					c4.754-2.745,9.488-3.034,13.335-0.814c4.418,2.551,6.951,8.122,6.951,15.285c0,12.591-7.491,26.778-17.057,32.3
					C297.618,204.685,294.982,205.452,292.503,205.452z"/>
			</g>
		</g>
		<g>
			
				<linearGradient id="SVGID_00000080928879097281976460000017474391169751103631_" gradientUnits="userSpaceOnUse" x1="222.742" y1="159.0865" x2="222.742" y2="128.7447" gradientTransform="matrix(0.866 -0.5 0 1.1547 31.7131 109.5337)">
				<stop  offset="0" style="stop-color:#59A3F5;stop-opacity:0"/>
				<stop  offset="1" style="stop-color:#59A3F5"/>
			</linearGradient>
			<path style="fill:url(#SVGID_00000080928879097281976460000017474391169751103631_);" d="M262.495,130.856
				c0,0-9.456,26.564-21.999,31.713c-6.064,2.489-15.84-4.625-23.992,1.087c-9.007,6.311-11.965,15.209-18.172,20.541
				c-8.288,7.118-11.611,2.358-11.611,2.358v23.085l75.775-43.748V130.856z"/>
			
				<linearGradient id="SVGID_00000004524117728303727840000015419927565946821310_" gradientUnits="userSpaceOnUse" x1="222.742" y1="170.6437" x2="222.742" y2="133.3713" gradientTransform="matrix(0.866 -0.5 0 1.1547 31.7131 109.5337)">
				<stop  offset="0" style="stop-color:#FF528E;stop-opacity:0"/>
				<stop  offset="1" style="stop-color:#FF528E"/>
			</linearGradient>
			<path style="fill:url(#SVGID_00000004524117728303727840000015419927565946821310_);" d="M262.495,148.782
				c-10.439,4.601-15.074-23.277-21.796-12.267c-6.722,11.01-11.61,41.739-22.457,48.408c-10.847,6.67-15.583-11.576-19.555-13.968
				c-3.972-2.392-11.967,5.28-11.967,5.28v33.406l75.775-43.748V148.782z"/>
			
				<path style="fill:none;stroke:#FF528E;stroke-width:1.4112;stroke-linecap:round;stroke-linejoin:round;stroke-miterlimit:10;" d="
				M186.72,176.234c0,0,7.995-7.671,11.967-5.28c3.972,2.392,8.708,20.638,19.555,13.968c10.847-6.669,15.735-37.398,22.457-48.408
				c6.722-11.01,11.357,16.868,21.796,12.267"/>
			
				<line style="fill:none;stroke:#59A3F5;stroke-width:1.4112;stroke-linecap:round;stroke-linejoin:round;stroke-miterlimit:10;" x1="262.495" y1="172.206" x2="262.495" y2="117.82"/>
			
				<line style="fill:none;stroke:#59A3F5;stroke-width:1.4112;stroke-linecap:round;stroke-linejoin:round;stroke-miterlimit:10;" x1="186.72" y1="161.568" x2="186.72" y2="215.955"/>
			
				<path style="fill:none;stroke:#59A3F5;stroke-width:1.4112;stroke-linecap:round;stroke-linejoin:round;stroke-miterlimit:10;" d="
				M186.72,186.555c0,0,3.323,4.76,11.611-2.358c6.207-5.332,9.166-14.23,18.172-20.541c8.152-5.712,17.929,1.402,23.992-1.087
				c12.544-5.149,21.999-31.713,21.999-31.713"/>
			<g>
				
					<line style="fill:none;stroke:#59A3F5;stroke-width:1.4112;stroke-linecap:round;stroke-linejoin:round;stroke-miterlimit:10;" x1="207.956" y1="149.308" x2="207.956" y2="203.695"/>
				
					<line style="fill:none;stroke:#59A3F5;stroke-width:1.4112;stroke-linecap:round;stroke-linejoin:round;stroke-miterlimit:10;" x1="241.26" y1="130.08" x2="241.26" y2="184.467"/>
			</g>
			<g>
				<g>
					<polygon style="fill:#59A3F5;" points="199.757,160.249 194.97,163.013 194.97,158.939 199.757,156.176 					"/>
				</g>
				<g>
					<polygon style="fill:#59A3F5;" points="203.831,162.01 194.97,167.126 194.97,165.497 203.831,160.381 					"/>
				</g>
			</g>
			<g>
				<g>
					<polygon style="fill:#59A3F5;" points="226.848,151.417 222.061,154.181 222.061,150.107 226.848,147.344 					"/>
				</g>
				<g>
					<polygon style="fill:#34ACE0;" points="230.922,153.178 222.061,158.294 222.061,156.665 230.922,151.549 					"/>
				</g>
			</g>
			<g>
				<g>
					<polygon style="fill:#59A3F5;" points="253.532,122.975 248.745,125.739 248.745,121.665 253.532,118.901 					"/>
				</g>
				<g>
					<polygon style="fill:#59A3F5;" points="257.606,124.736 248.745,129.852 248.745,128.222 257.606,123.106 					"/>
				</g>
			</g>
		</g>
		<g>
			<polygon style="fill:#FFD562;" points="210.17,218.414 186.72,232.307 186.72,228.233 210.17,214.34 			"/>
		</g>
		<g>
			<polygon style="fill:#59A3F5;" points="225.335,218.414 186.72,241.29 186.72,237.216 225.335,214.34 			"/>
		</g>
		<g>
			<polygon style="fill:#59A3F5;" points="225.335,227.397 186.72,250.274 186.72,246.2 225.335,223.323 			"/>
		</g>
		<g>
			<polygon style="fill:#59A3F5;" points="225.335,236.381 186.72,259.258 186.72,255.184 225.335,232.307 			"/>
		</g>
		<g>
			<polygon style="fill:#59A3F5;" points="225.335,245.364 186.72,268.241 186.72,264.167 225.335,241.29 			"/>
		</g>
		<g>
			<polygon style="fill:#FFD562;" points="258.078,189.887 234.628,203.78 234.628,199.706 258.078,185.814 			"/>
		</g>
		<g>
			<polygon style="fill:#59A3F5;" points="273.243,189.887 234.628,212.764 234.628,208.69 273.243,185.814 			"/>
		</g>
		<g>
			<polygon style="fill:#59A3F5;" points="273.243,198.871 234.628,221.748 234.628,217.674 273.243,194.797 			"/>
		</g>
		<g>
			<polygon style="fill:#59A3F5;" points="273.243,207.855 234.628,230.731 234.628,226.657 273.243,203.78 			"/>
		</g>
		<g>
			<polygon style="fill:#59A3F5;" points="273.243,216.838 234.628,239.715 234.628,235.641 273.243,212.764 			"/>
		</g>
		<g>
			<polygon style="fill:#FFD562;" points="300.536,103.602 277.087,117.496 277.087,113.421 300.536,99.528 			"/>
		</g>
		<g>
			<polygon style="fill:#59A3F5;" points="315.701,103.602 277.087,126.479 277.087,122.405 315.701,99.528 			"/>
		</g>
		<g>
			<polygon style="fill:#59A3F5;" points="315.701,112.586 277.087,135.462 277.087,131.389 315.701,108.512 			"/>
		</g>
		<g>
			<polygon style="fill:#59A3F5;" points="315.701,121.569 277.087,144.446 277.087,140.373 315.701,117.496 			"/>
		</g>
		<g>
			<polygon style="fill:#59A3F5;" points="315.701,130.553 277.087,153.43 277.087,149.356 315.701,126.479 			"/>
		</g>
		
			<polyline style="fill:none;stroke:#FF528E;stroke-width:2.4961;stroke-linecap:round;stroke-linejoin:round;stroke-miterlimit:10;" points="
			210.17,287.116 210.17,310.839 152.983,343.855 		"/>
		
			<polyline style="fill:none;stroke:#52F894;stroke-width:2.4961;stroke-linecap:round;stroke-linejoin:round;stroke-miterlimit:10;" points="
			225.907,296.815 225.907,320.537 154.862,361.555 		"/>
		<g>
			<path style="fill:#2D527B;" d="M293.876,289.664c-0.53,0-1.066-0.135-1.558-0.418l-4.9-2.829
				c-1.492-0.862-2.004-2.77-1.142-4.263c0.861-1.492,2.772-2.002,4.262-1.142l4.899,2.829c1.492,0.861,2.004,2.771,1.143,4.262
				C296.003,289.104,294.953,289.664,293.876,289.664z"/>
		</g>
		
			<polyline style="fill:none;stroke:#B18FFF;stroke-width:2.4961;stroke-linecap:round;stroke-linejoin:round;stroke-miterlimit:10;" points="
			294.721,287.116 294.721,310.839 351.908,343.855 		"/>
		<g>
			<path style="fill:#2D527B;" d="M278.141,299.361c-0.53,0-1.066-0.134-1.558-0.418l-4.899-2.828
				c-1.492-0.862-2.004-2.771-1.143-4.263c0.862-1.493,2.773-2.004,4.263-1.142l4.899,2.828c1.491,0.862,2.004,2.771,1.142,4.263
				C280.268,298.802,279.218,299.361,278.141,299.361z"/>
		</g>
		
			<polyline style="fill:none;stroke:#59A3F5;stroke-width:2.4961;stroke-linecap:round;stroke-linejoin:round;stroke-miterlimit:10;" points="
			278.984,296.815 278.984,320.537 350.029,361.555 		"/>
		<path style="fill:#5BA5F5;" d="M214.828,392.048l-78.102-45.184c-3.356-1.938-7.492-1.938-10.848,0l-49.489,28.572l-4.124-0.83
			v5.304l0,0c0,1.222,0.604,2.442,1.813,3.14l84.827,49.067c3.356,1.939,7.492,1.939,10.848,0l51.799-29.906
			c1.208-0.697,1.813-1.919,1.813-3.14v-5.305L214.828,392.048z"/>
		<path style="fill:#A5CBF4;" d="M74.079,377.746l84.827,49.067c3.356,1.938,7.492,1.938,10.848,0l51.799-29.906
			c2.417-1.396,2.417-4.885,0-6.28l-84.827-49.067c-3.356-1.938-7.492-1.938-10.848,0l-51.799,29.906
			C71.662,372.861,71.662,376.351,74.079,377.746z"/>
		
			<linearGradient id="SVGID_00000109029703180056342450000002135587068414581379_" gradientUnits="userSpaceOnUse" x1="151.9891" y1="402.1261" x2="198.8244" y2="430.2428">
			<stop  offset="0" style="stop-color:#437AB8"/>
			<stop  offset="1" style="stop-color:#437AB8;stop-opacity:0"/>
		</linearGradient>
		<polygon style="opacity:0.1;fill:url(#SVGID_00000109029703180056342450000002135587068414581379_);" points="186.859,407.137 
			155.845,425.043 124.83,407.137 161.028,386.237 		"/>
		<g>
			<polygon style="fill:#DBECFD;" points="95.539,338.962 127.826,357.603 161.028,338.434 128.741,319.793 			"/>
			<g>
				<defs>
					<polygon id="SVGID_00000011753613447355883750000001371139549824693691_" points="95.539,338.962 127.826,357.603 
						161.028,338.434 128.741,319.793 					"/>
				</defs>
				<clipPath id="SVGID_00000044870505760146814700000001958807349230180509_">
					<use xlink:href="#SVGID_00000011753613447355883750000001371139549824693691_"  style="overflow:visible;"/>
				</clipPath>
			</g>
			<polygon style="fill:#62A9F5;" points="95.539,338.962 95.539,377.415 127.826,396.056 127.826,357.603 			"/>
			<polygon style="fill:#A4D0FA;" points="127.826,396.056 161.028,376.887 161.028,338.434 127.826,357.603 			"/>
			<path style="opacity:0.2;fill:#B18FFF;" d="M140.101,343.566c-7.17,4.14-18.017,4.59-24.226,1.005
				c-6.21-3.586-5.431-9.848,1.739-13.987c7.17-4.14,18.017-4.59,24.226-1.005C148.05,333.165,147.271,339.427,140.101,343.566z"/>
			<path style="opacity:0.5;fill:#B18FFF;" d="M136.545,341.514c-4.903,2.831-12.319,3.139-16.565,0.686
				c-4.246-2.451-3.713-6.733,1.189-9.564c4.903-2.831,12.32-3.139,16.566-0.686C141.98,334.401,141.448,338.684,136.545,341.514z"
				/>
			<g>
				
					<linearGradient id="SVGID_00000108307219893329511330000011762763082022754445_" gradientUnits="userSpaceOnUse" x1="127.1218" y1="410.8293" x2="129.4322" y2="240.4314">
					<stop  offset="0" style="stop-color:#B18FFF"/>
					<stop  offset="1" style="stop-color:#B18FFF;stop-opacity:0"/>
				</linearGradient>
				<path style="opacity:0.5;fill:url(#SVGID_00000108307219893329511330000011762763082022754445_);" d="M146.022,335.36V225.278
					l-34.322,3.522v109.305c-0.167,2.417,1.201,4.749,4.174,6.466c6.21,3.585,17.056,3.135,24.226-1.005
					C144.163,341.222,146.171,338.195,146.022,335.36z"/>
				
					<linearGradient id="SVGID_00000087371039240779644620000014082930558833955207_" gradientUnits="userSpaceOnUse" x1="128.8589" y1="359.2324" x2="128.8589" y2="251.6636">
					<stop  offset="0" style="stop-color:#B18FFF"/>
					<stop  offset="1" style="stop-color:#B18FFF;stop-opacity:0"/>
				</linearGradient>
				<path style="opacity:0.5;fill:url(#SVGID_00000087371039240779644620000014082930558833955207_);" d="M140.598,241.986
					c-0.043-1.517-0.984-2.96-2.863-4.044c-4.246-2.452-11.663-2.144-16.566,0.687c-2.851,1.646-4.221,3.782-4.036,5.765v93.296
					c-0.155,1.684,0.776,3.315,2.847,4.511c4.246,2.452,11.663,2.145,16.565-0.686c2.705-1.562,4.077-3.565,4.052-5.459h0.003
					v-94.069L140.598,241.986z"/>
				
					<linearGradient id="SVGID_00000068669353124280228460000018337284679855476627_" gradientUnits="userSpaceOnUse" x1="128.8589" y1="345.2793" x2="128.8589" y2="287.5997">
					<stop  offset="0" style="stop-color:#B18FFF"/>
					<stop  offset="1" style="stop-color:#B18FFF;stop-opacity:0.0167"/>
				</linearGradient>
				<path style="opacity:0.5;fill:url(#SVGID_00000068669353124280228460000018337284679855476627_);" d="M135.153,282.41
					c-0.023-0.813-0.528-1.587-1.535-2.168c-2.277-1.314-6.254-1.15-8.883,0.368c-1.528,0.882-2.263,2.028-2.164,3.091v50.026
					c-0.083,0.904,0.416,1.778,1.526,2.419c2.277,1.314,6.254,1.15,8.883-0.368c1.45-0.837,2.186-1.911,2.173-2.927h0.002V282.41
					H135.153z"/>
				<path style="opacity:0.5;fill:none;stroke:#B18FFF;stroke-width:0.4805;stroke-miterlimit:10;" d="M136.545,290.573
					c-4.903,2.831-12.319,3.139-16.565,0.687c-4.246-2.451-3.713-6.733,1.189-9.564c4.903-2.831,12.32-3.139,16.566-0.686
					C141.98,283.461,141.448,287.743,136.545,290.573z"/>
				<path style="opacity:0.5;fill:none;stroke:#B18FFF;stroke-width:0.4805;stroke-miterlimit:10;" d="M136.545,308.497
					c-4.903,2.831-12.319,3.138-16.565,0.686c-4.246-2.451-3.713-6.733,1.189-9.564c4.903-2.83,12.32-3.138,16.566-0.687
					C141.98,301.385,141.448,305.666,136.545,308.497z"/>
				<path style="opacity:0.5;fill:none;stroke:#B18FFF;stroke-width:0.4805;stroke-miterlimit:10;" d="M136.545,326.147
					c-4.903,2.831-12.319,3.138-16.565,0.686c-4.246-2.451-3.713-6.733,1.189-9.564c4.903-2.831,12.32-3.139,16.566-0.688
					C141.98,319.034,141.448,323.315,136.545,326.147z"/>
			</g>
		</g>
		<g>
			<path style="fill:#5BA5F5;" d="M414.981,366.089l-46.533-27.069c-3.356-1.938-7.492-1.938-10.849,0l-49.488,28.572l-4.124-0.83
				v5.305l0,0c0,1.221,0.605,2.442,1.814,3.14l53.259,30.952c3.356,1.939,7.491,1.939,10.849,0l51.799-29.906
				c1.209-0.697,1.813-1.919,1.813-3.14v-5.304L414.981,366.089z"/>
			<path style="fill:#A5CBF4;" d="M305.801,369.902l53.259,30.952c3.356,1.938,7.491,1.938,10.849,0l51.799-29.906
				c2.417-1.396,2.417-4.885,0-6.28l-53.259-30.952c-3.356-1.938-7.492-1.938-10.849,0l-51.799,29.906
				C303.383,365.018,303.383,368.507,305.801,369.902z"/>
		</g>
		
			<linearGradient id="SVGID_00000132767481654010903640000006529173836999520398_" gradientUnits="userSpaceOnUse" x1="383.2991" y1="378.5005" x2="417.7358" y2="399.1739">
			<stop  offset="0" style="stop-color:#437AB8"/>
			<stop  offset="1" style="stop-color:#437AB8;stop-opacity:0"/>
		</linearGradient>
		<polygon style="opacity:0.1;fill:url(#SVGID_00000132767481654010903640000006529173836999520398_);" points="379.287,395.44 
			361.528,385.185 394.73,366.017 412.489,376.27 		"/>
		
			<linearGradient id="SVGID_00000065755258144098847090000011504344599856545444_" gradientUnits="userSpaceOnUse" x1="602.3698" y1="388.14" x2="629.569" y2="404.4685" gradientTransform="matrix(-1 0 0 1 711.418 0)">
			<stop  offset="0" style="stop-color:#437AB8"/>
			<stop  offset="1" style="stop-color:#437AB8;stop-opacity:0"/>
		</linearGradient>
		<polygon style="opacity:0.1;fill:url(#SVGID_00000065755258144098847090000011504344599856545444_);" points="116.704,402.404 
			127.826,396.056 95.533,377.395 84.411,383.742 		"/>
		
			<linearGradient id="SVGID_00000020400783760062524520000015743180820284612023_" gradientUnits="userSpaceOnUse" x1="384.368" y1="379.2878" x2="405.0721" y2="393.4244">
			<stop  offset="0" style="stop-color:#437AB8"/>
			<stop  offset="1" style="stop-color:#437AB8;stop-opacity:0"/>
		</linearGradient>
		<polygon style="opacity:0.1;fill:url(#SVGID_00000020400783760062524520000015743180820284612023_);" points="379.6,382.946 
			390.473,389.006 400.363,383.295 395.201,380.447 		"/>
		<g>
			<polygon style="fill:#DBECFD;" points="329.241,328.092 361.528,346.733 394.73,327.564 362.443,308.923 			"/>
			<g>
				<defs>
					<polygon id="SVGID_00000143603235289822120400000011080952696706298280_" points="329.241,328.092 361.528,346.733 
						394.73,327.564 362.443,308.923 					"/>
				</defs>
				<clipPath id="SVGID_00000103232859515137513010000014166370469387910831_">
					<use xlink:href="#SVGID_00000143603235289822120400000011080952696706298280_"  style="overflow:visible;"/>
				</clipPath>
			</g>
			<polygon style="fill:#62A9F5;" points="329.241,328.092 329.241,366.545 361.528,385.185 361.528,346.733 			"/>
			<polygon style="fill:#A4D0FA;" points="361.528,385.185 394.73,366.017 394.73,327.564 361.528,346.733 			"/>
			<path style="opacity:0.2;fill:#33D9B2;" d="M373.803,332.696c-7.17,4.14-18.017,4.59-24.226,1.005
				c-6.209-3.586-5.431-9.848,1.739-13.987c7.171-4.14,18.018-4.59,24.227-1.005C381.752,322.295,380.974,328.557,373.803,332.696z"
				/>
			<path style="opacity:0.5;fill:#33D9B2;" d="M370.247,330.644c-4.902,2.831-12.319,3.139-16.566,0.687
				c-4.245-2.451-3.713-6.733,1.19-9.564c4.903-2.831,12.319-3.139,16.565-0.686C375.683,323.531,375.15,327.814,370.247,330.644z"
				/>
			<g>
				
					<linearGradient id="SVGID_00000162328712282620837860000002263697888515380148_" gradientUnits="userSpaceOnUse" x1="362.5611" y1="348.3623" x2="362.5611" y2="240.7934">
					<stop  offset="0" style="stop-color:#52F894"/>
					<stop  offset="1" style="stop-color:#52F894;stop-opacity:0"/>
				</linearGradient>
				<path style="opacity:0.5;fill:url(#SVGID_00000162328712282620837860000002263697888515380148_);" d="M374.3,231.116
					c-0.043-1.517-0.984-2.96-2.863-4.044c-4.246-2.452-11.662-2.144-16.565,0.687c-2.851,1.646-4.221,3.782-4.036,5.765v93.296
					c-0.154,1.685,0.776,3.315,2.847,4.511c4.246,2.452,11.663,2.145,16.566-0.687c2.705-1.562,4.077-3.564,4.053-5.459h0.004
					v-94.069L374.3,231.116z"/>
				
					<linearGradient id="SVGID_00000140719543483010282350000011658117709388713401_" gradientUnits="userSpaceOnUse" x1="360.8239" y1="399.9591" x2="363.1342" y2="229.5612">
					<stop  offset="0" style="stop-color:#52F894"/>
					<stop  offset="1" style="stop-color:#52F894;stop-opacity:0"/>
				</linearGradient>
				<path style="opacity:0.5;fill:url(#SVGID_00000140719543483010282350000011658117709388713401_);" d="M379.725,324.49V214.408
					l-34.322,3.522v109.305c-0.166,2.418,1.2,4.749,4.174,6.466c6.21,3.585,17.057,3.135,24.226-1.005
					C377.865,330.352,379.873,327.325,379.725,324.49z"/>
				
					<linearGradient id="SVGID_00000034065533957419707390000011551350218119589032_" gradientUnits="userSpaceOnUse" x1="362.5609" y1="334.4092" x2="362.5609" y2="276.7299">
					<stop  offset="0" style="stop-color:#52F894"/>
					<stop  offset="1" style="stop-color:#52F894;stop-opacity:0"/>
				</linearGradient>
				<path style="opacity:0.5;fill:url(#SVGID_00000034065533957419707390000011551350218119589032_);" d="M368.855,271.54
					c-0.023-0.813-0.528-1.587-1.535-2.168c-2.276-1.315-6.254-1.149-8.883,0.368c-1.528,0.883-2.263,2.028-2.164,3.091v50.026
					c-0.083,0.904,0.416,1.778,1.526,2.419c2.277,1.314,6.254,1.15,8.883-0.368c1.45-0.837,2.186-1.911,2.173-2.927h0.002V271.54
					H368.855z"/>
				<path style="opacity:0.5;fill:none;stroke:#52F894;stroke-width:0.4805;stroke-miterlimit:10;" d="M370.247,279.703
					c-4.902,2.831-12.319,3.139-16.566,0.686c-4.245-2.451-3.713-6.733,1.19-9.563c4.903-2.831,12.319-3.138,16.565-0.687
					C375.683,272.591,375.15,276.873,370.247,279.703z"/>
				<path style="opacity:0.5;fill:none;stroke:#52F894;stroke-width:0.4805;stroke-miterlimit:10;" d="M370.247,297.627
					c-4.902,2.831-12.319,3.138-16.566,0.686c-4.245-2.451-3.713-6.733,1.19-9.564c4.903-2.831,12.319-3.139,16.565-0.688
					C375.683,290.515,375.15,294.796,370.247,297.627z"/>
				<path style="opacity:0.5;fill:none;stroke:#52F894;stroke-width:0.4805;stroke-miterlimit:10;" d="M370.247,315.276
					c-4.902,2.831-12.319,3.139-16.566,0.686c-4.245-2.451-3.713-6.733,1.19-9.563c4.903-2.831,12.319-3.139,16.565-0.687
					C375.683,308.164,375.15,312.445,370.247,315.276z"/>
			</g>
		</g>
		<g>
			<polygon style="fill:#2D527B;" points="257.14,271.601 257.14,288.273 297.655,264.882 297.655,248.209 			"/>
			<g>
				<g>
					<polygon style="fill:#52F894;" points="261.32,275.935 263.878,274.457 263.878,272.901 261.32,274.379 					"/>
					<polygon style="fill:#52F894;" points="274.614,266.703 274.614,268.259 277.173,266.781 277.173,265.226 					"/>
					<polygon style="fill:#52F894;" points="267.647,272.281 268.814,271.607 268.814,268.197 267.647,268.87 					"/>
					<polygon style="fill:#52F894;" points="271.441,265.265 270.616,266.841 271.602,267.585 270.616,269.467 271.441,270.091 
						273.25,266.635 273.249,266.634 273.25,266.632 					"/>
					<polygon style="fill:#52F894;" points="265.056,273.777 266.335,273.039 266.335,271.483 265.056,272.222 					"/>
				</g>
				<g>
					<polygon style="fill:#52F894;" points="268.097,279.692 270.654,278.216 270.654,276.66 268.097,278.137 					"/>
					<polygon style="fill:#52F894;" points="261.129,283.715 262.296,283.041 262.296,279.631 261.129,280.305 					"/>
					<polygon style="fill:#52F894;" points="273.516,273.153 272.349,273.827 272.349,275.682 272.349,277.237 273.516,276.565 
						274.906,275.761 274.906,274.205 273.516,275.008 					"/>
					<polygon style="fill:#52F894;" points="264.923,276.698 264.099,278.274 265.083,279.02 264.099,280.9 264.923,281.524 
						266.731,278.068 266.73,278.067 266.731,278.065 					"/>
					<polygon style="fill:#52F894;" points="276.084,273.525 276.084,275.081 277.363,274.342 277.363,272.786 					"/>
				</g>
			</g>
			<g>
				<g>
					<polygon style="fill:#52F894;" points="279.801,265.373 282.359,263.896 282.359,262.34 279.801,263.816 					"/>
					<polygon style="fill:#52F894;" points="293.096,256.142 293.096,257.697 295.653,256.22 295.653,254.664 					"/>
					<polygon style="fill:#52F894;" points="286.129,261.72 287.296,261.046 287.296,257.635 286.129,258.309 					"/>
					<polygon style="fill:#52F894;" points="289.923,254.703 289.098,256.279 290.082,257.023 289.098,258.905 289.923,259.529 
						291.731,256.073 291.73,256.072 291.731,256.07 					"/>
					<polygon style="fill:#52F894;" points="283.537,263.216 284.816,262.478 284.816,260.922 283.537,261.66 					"/>
				</g>
				<g>
					<polygon style="fill:#52F894;" points="286.577,269.131 289.136,267.654 289.136,266.099 286.577,267.575 					"/>
					<polygon style="fill:#52F894;" points="279.61,273.153 280.777,272.479 280.777,269.069 279.61,269.743 					"/>
					<polygon style="fill:#52F894;" points="291.996,262.592 290.83,263.266 290.83,265.12 290.83,266.676 291.996,266.002 
						293.388,265.199 293.388,263.644 291.996,264.446 					"/>
					<polygon style="fill:#52F894;" points="283.404,266.137 282.579,267.713 283.564,268.458 282.579,270.339 283.404,270.963 
						285.213,267.507 285.212,267.506 285.213,267.504 					"/>
					<polygon style="fill:#52F894;" points="294.565,262.963 294.565,264.52 295.845,263.78 295.845,262.225 					"/>
				</g>
			</g>
		</g>
		<g>
			<polygon style="fill:#62A9F5;" points="365.217,347.656 365.217,355.005 370.345,357.966 			"/>
			<polygon style="fill:#DBECFD;" points="365.217,347.656 390.074,333.706 395.201,344.015 370.345,357.966 			"/>
		</g>
		<g>
			<path style="fill:#CEDFED;" d="M395.193,319.019c0,0,2.446,1.042,3.044,3.009c0.598,1.968,0.91,10.313,0.52,11.172
				c-0.39,0.858-4.602,2.73-4.602,2.73L395.193,319.019z"/>
			<path style="fill:#FFAD91;" d="M383.209,308.343c0,0-0.364,5.564,0,6.603c0.364,1.04,2.132,1.509,2.132,1.509
				s0.728-6.605,0.676-6.813C385.965,309.435,383.209,308.343,383.209,308.343z"/>
			<path style="fill:#2D527B;" d="M396.053,377.167c0,0,0.702,4.16,0,5.018c-0.701,0.858-3.042,1.794-4.991,0.391
				c-1.95-1.404-2.569-1.612-4.759-2.345c-1.568-0.524-2.418-1.764-2.34-3.064c0.078-1.301,6.942-0.91,6.942-0.91L396.053,377.167z"
				/>
			<path style="fill:#2D527B;" d="M390.333,380.365c0,0,0.702,4.16,0,5.018c-0.702,0.858-3.042,1.794-4.992,0.39
				c-1.95-1.403-2.568-1.611-4.758-2.344c-1.569-0.524-2.418-1.764-2.341-3.064c0.078-1.301,6.942-0.91,6.942-0.91L390.333,380.365z
				"/>
			<path style="fill:#CEDFED;" d="M382.772,363.991l0.696,17.608c0,0,2.005,1.126,3.896,0.741c2.553-0.52,2.969-1.976,2.969-1.976
				v-1.561c0,0,0.572,0.52,2.704,0.208s3.068-1.82,3.068-1.82l0.26-16.952L382.772,363.991z"/>
			<path style="fill:#A4D0FA;" d="M391.279,379.086l0.327-16.629l-1.09,1.305l-0.184,15.043l0.085,0.055
				C390.534,378.926,390.791,379.036,391.279,379.086z"/>
			<path style="fill:#E5ECF2;" d="M395.193,319.019c0,0,2.16,0.998,2.082,4.509c-0.078,3.51-1.872,10.53-1.716,12.168
				c0.155,1.638,1.278,4.992,1.718,9.257c0.44,4.264,0.96,14.352,0.96,14.352s-2.233,3.092-7.721,4.458
				c-5.487,1.366-8.426,0-8.426,0s-0.078-18.29,0.442-20.994c0.52-2.704-2.263-6.552-1.352-11.024c0.91-4.472,1.3-8.893,1.3-8.893
				S393.729,317.466,395.193,319.019z"/>
			<path style="fill:#2D527B;" d="M384.533,310.11c0,0-1.896-0.416-2.442-2.132c-0.546-1.716-0.392-4.212,1.222-5.305
				c1.612-1.092,3.692-1.716,5.461-1.352c1.768,0.364,7.487,2.912,8.008,7.021c0.52,4.107-1.04,7.435-0.624,11.232
				c0.416,3.796,0.468,5.147-0.416,7.696c-0.884,2.548-2.652,3.067-2.652,3.067s-3.275-0.103-5.668-3.275
				c-2.392-3.173-2.888-5.036-2.888-5.036l-2.053,0.823c0,0,0.572-1.924,1.404-3.483
				C384.717,317.807,384.533,310.631,384.533,310.11z"/>
			<path style="fill:#CEDFED;" d="M382.48,322.851c0,0,2.549-0.338,3.017,2.704c0.468,3.042,0.468,13.495,0,14.509
				c-0.468,1.014-8.112,5.772-8.112,5.772l-3.198-4.283l6.162-4.453c0,0,0-10.297,0.313-11.778
				C380.973,323.839,381.643,323.335,382.48,322.851z"/>
			<path style="fill:#FFAD91;" d="M374.186,341.553c0,0-1.222,0.903-1.898,2.15c-0.676,1.249-0.363,3.433,0.208,3.536
				c0.572,0.105,1.768,0.105,2.028-0.363c0.26-0.469,0.26-0.78,0.26-0.78s0.364,0.159,1.171-0.156
				c1.017-0.398,0.785-0.966,0.785-0.966L374.186,341.553z"/>
		</g>
		<g>
			<path style="fill:#62A9F5;" d="M192.96,384.147l-35.318,3.252v14.604c0.033,2.311,1.441,4.515,4.3,6.165
				c6.387,3.688,17.543,3.226,24.918-1.032c4.088-2.36,6.146-5.391,6.09-8.252l0.01-0.001V384.147z"/>
			<path style="fill:#DBECFD;" d="M163.73,378.986c-7.375,4.258-8.176,10.698-1.789,14.386c6.387,3.688,17.543,3.226,24.918-1.033
				c7.375-4.258,8.176-10.698,1.789-14.386C182.262,374.266,171.105,374.728,163.73,378.986z"/>
			<path style="fill:#2D527B;" d="M150.442,399.822c0,0,0.121,1.083-0.542,2.526c-0.661,1.444-2.045,1.564-3.428,0.842
				c-1.384-0.722-2.466-2.225-3.67-2.586c-1.203-0.361-6.286-3.278-6.045-5.083c0.24-1.805,8.21-0.331,10.315,0.933
				C149.179,397.717,150.442,399.822,150.442,399.822z"/>
			<path style="fill:#2D527B;" d="M186.06,377.742c0,0,0.027,5.437-1.416,7.061c-1.443,1.624-6.743,5.215-12.427,3.682
				c-5.684-1.534-14.346-4.061-14.346-4.061l-7.429,15.398l-0.312,0.041c-2.274,0.296-4.372-1.267-4.741-3.529l0,0
				c0,0,6.015-18.888,9.504-20.091c3.489-1.202,17.263,0,17.263,0L186.06,377.742z"/>
			<g>
				<path style="fill:#62A9F5;" d="M173.725,367.983l-8.277-4.778l-13.21,7.626l12.911-19.01l-0.494-0.285
					c-0.439-0.253-0.978-0.253-1.417,0l-13.036,7.526c-0.459,0.266-0.741,0.755-0.741,1.284v10.475c0,0.439,0.235,0.846,0.616,1.064
					l9.109,5.235c0.367,0.211,0.819,0.21,1.187-0.002l13.982-8.072c0.147-0.085,0.206-0.238,0.192-0.386l0.004-0.001v-0.786
					L173.725,367.983z"/>
				<path style="fill:#DBECFD;" d="M150.265,371.093l8.919,5.149c0.368,0.212,0.821,0.212,1.189,0l13.982-8.072
					c0.269-0.156,0.269-0.545,0-0.7l-8.907-5.143L150.265,371.093z"/>
				<path style="fill:#2D527B;" d="M150.265,371.093V360.75c0-0.433,0.231-0.832,0.605-1.048l13.659-7.886
					c0.408-0.236,0.919,0.059,0.919,0.53v9.98L150.265,371.093z"/>
				<path style="fill:#5BA5F5;" d="M151.03,369.746v-8.548c0-0.357,0.191-0.688,0.5-0.866l12.551-7.272
					c0.337-0.194,0.76,0.049,0.76,0.438v8.249L151.03,369.746z"/>
				<polygon style="fill:#A4D0FA;" points="152.495,370.837 165.357,363.411 169.842,366 156.979,373.426 				"/>
				<polygon style="fill:#D1CCC0;" points="162.223,371.38 165.961,369.212 168.132,370.465 164.394,372.633 				"/>
				<g>
					<polygon style="opacity:0.1;fill:#F7F1E3;" points="152.899,359.539 151.03,363.109 151.03,369.746 155.002,367.445 
						161.857,354.349 					"/>
					<path style="opacity:0.1;fill:#F7F1E3;" d="M164.841,359.846v-6.348c0-0.274-0.212-0.467-0.454-0.494l-6.764,12.923
						l5.789-3.353L164.841,359.846z"/>
				</g>
			</g>
			<g>
				<path style="fill:#E69C83;" d="M170.081,364.308c0,0-1.49-1.518-2.747-1.586c-1.257-0.068-3.558,2.593-3.558,4.037
					c0,1.443,0.361,1.443,0.812,1.488c0.451,0.045,0.722-0.632,0.722-0.632s0.497,0.23,0.722,0.634
					c0.226,0.404,0.503,1.577,2.304,1.352C170.138,369.375,170.081,364.308,170.081,364.308z"/>
				<path style="fill:#D1CCC0;" d="M170.081,364.308c0,0-1.143,0.18-1.744,1.684c-0.602,1.504,0,3.609,0,3.609
					s8.09,1.53,9.774,0.508c1.684-1.022,4.27-9.143,3.789-14.316c-0.481-5.173-2.042-6.364-4.03-6.015
					c-1.988,0.35-2.647,1.203-2.827,4.15c-0.181,2.947-0.181,8.842-0.722,9.744C173.78,364.574,170.081,364.308,170.081,364.308z"/>
			</g>
			<path style="fill:#E69C83;" d="M161.78,370.142c0,0-1.49-1.518-2.747-1.586c-1.257-0.068-3.558,2.594-3.558,4.037
				c0,1.443,0.361,1.443,0.812,1.489c0.451,0.045,0.722-0.632,0.722-0.632s0.496,0.229,0.722,0.634
				c0.226,0.403,0.503,1.576,2.304,1.351C161.837,375.209,161.78,370.142,161.78,370.142z"/>
			<path style="fill:#E5ECF2;" d="M171.675,352.785c0,0-3.309,2.126-4.271,4.051s1.435,10.686,1.203,14.776
				c-0.232,4.09-1.083,6.135-0.241,7.819c0.842,1.684,6.617,3.309,10.887,2.346c4.271-0.962,7.217-3.755,7.217-5.078
				c0-1.323-0.307-5.239-0.307-7.525c0-2.285,0.428-12.433-0.534-16.041c-0.962-3.609-5.354-4.077-6.436-3.837
				C178.111,349.537,171.675,352.785,171.675,352.785z"/>
			<path style="fill:#E69C83;" d="M169.209,338.891c0,0-1.023,8.901,0,10.104c1.022,1.203,2.466,1.504,2.466,1.504v2.286
				c0,0,1.564,0.781,4.27,0c2.707-0.782,3.308-1.925,3.308-1.925v-14.557L169.209,338.891z"/>
			<path style="fill:#2D527B;" d="M169.209,338.891c0,0-0.542-0.602-0.842-1.926c-0.301-1.323-0.098-4.715,0.842-5.255
				c0.826-0.475,1.684,0.022,1.684,0.022s0.511-0.992,1.278-1.038c0.767-0.045,1.218,0.542,1.218,0.542s0.187-0.849,0.999-0.802
				c0.812,0.048,1.107,0.524,1.107,0.524s5.97,0.277,7.729,4.382c1.76,4.105,1.023,11.008-0.842,13.053
				c-1.865,2.046-4.932,2.768-6.737,2.166c-1.805-0.602-3.489-5.474-3.489-5.474l-1.323-0.368v-5.226L169.209,338.891z"/>
			<path style="fill:#E69C83;" d="M172.156,345.086v-3.549c0,0,2.105,0.15,2.286,1.594c0.181,1.443-0.466,3.319-1.631,3.589
				C172.171,346.867,172.156,345.086,172.156,345.086z"/>
			<path style="fill:#CEDFED;" d="M161.78,370.142c0,0-1.143,0.181-1.744,1.685c-0.602,1.504,0,3.609,0,3.609s8.09,1.53,9.774,0.507
				c1.684-1.023,4.271-9.143,3.79-14.315c-0.481-5.173-2.043-6.365-4.03-6.015c-1.988,0.35-2.646,1.203-2.827,4.15
				c-0.18,2.947-0.18,8.842-0.722,9.744C165.479,370.409,161.78,370.142,161.78,370.142z"/>
		</g>
		<path style="fill:#DBECFD;" d="M131.208,126.479L131.208,126.479c-0.727,0-1.316-0.589-1.316-1.316V76.157
			c0-0.727,0.589-1.316,1.316-1.316l0,0c0.727,0,1.315,0.589,1.315,1.316v49.006C132.523,125.89,131.935,126.479,131.208,126.479z"
			/>
		<path style="fill:#FF528E;" d="M151.756,82.626c0,4.299-3.485,7.784-7.784,7.784c-4.299,0-7.784-3.485-7.784-7.784
			c0-4.299,3.485-7.784,7.784-7.784C148.271,74.841,151.756,78.326,151.756,82.626z"/>
		<text transform="matrix(1 0 0 1 154.6123 79.9248)" style="fill:#2D527B; font-family:'Montserrat-Bold'; font-size:6.4089px;">Lorem Ipsum</text>
		<g>
			<text transform="matrix(1 0 0 1 154.6143 85.3271)"><tspan x="0" y="0" style="fill:#A5CBF4; font-family:'Montserrat-Regular'; font-size:2.8804px;">Lorem ipsum dolor sit amet,</tspan><tspan x="0" y="3.457" style="fill:#A5CBF4; font-family:'Montserrat-Regular'; font-size:2.8804px;">ut ius quaestio perpetua.</tspan></text>
		</g>
		<path style="fill:#DBECFD;" d="M407.678,170.832L407.678,170.832c-0.727,0-1.315-0.589-1.315-1.316V120.51
			c0-0.727,0.589-1.316,1.315-1.316l0,0c0.727,0,1.316,0.589,1.316,1.316v49.006C408.994,170.243,408.404,170.832,407.678,170.832z"
			/>
		<circle style="fill:#FFD562;" cx="420.442" cy="126.979" r="7.784"/>
		<text transform="matrix(1 0 0 1 431.083 124.2778)" style="fill:#2D527B; font-family:'Montserrat-Bold'; font-size:6.4089px;">Lorem Ipsum</text>
		<g>
			<text transform="matrix(1 0 0 1 431.084 129.6797)"><tspan x="0" y="0" style="fill:#A5CBF4; font-family:'Montserrat-Regular'; font-size:2.8804px;">Lorem ipsum dolor sit amet,</tspan><tspan x="0" y="3.457" style="fill:#A5CBF4; font-family:'Montserrat-Regular'; font-size:2.8804px;">ut ius quaestio perpetua.</tspan></text>
		</g>
		<path style="fill:#DBECFD;" d="M412.475,345.611L412.475,345.611c-0.727,0-1.315-0.589-1.315-1.315V295.29
			c0-0.727,0.589-1.316,1.315-1.316l0,0c0.727,0,1.316,0.59,1.316,1.316v49.006C413.791,345.022,413.201,345.611,412.475,345.611z"
			/>
		<circle style="fill:#52F894;" cx="425.239" cy="301.758" r="7.784"/>
		<text transform="matrix(1 0 0 1 435.8799 299.0566)" style="fill:#2D527B; font-family:'Montserrat-Bold'; font-size:6.4089px;">Lorem Ipsum</text>
		<g>
			<text transform="matrix(1 0 0 1 435.8809 304.459)"><tspan x="0" y="0" style="fill:#A5CBF4; font-family:'Montserrat-Regular'; font-size:2.8804px;">Lorem ipsum dolor sit amet,</tspan><tspan x="0" y="3.456" style="fill:#A5CBF4; font-family:'Montserrat-Regular'; font-size:2.8804px;">ut ius quaestio perpetua.</tspan></text>
		</g>
		<path style="fill:#DBECFD;" d="M87.042,354.307L87.042,354.307c-0.727,0-1.316-0.589-1.316-1.315v-49.006
			c0-0.727,0.589-1.316,1.316-1.316l0,0c0.727,0,1.316,0.59,1.316,1.316v49.006C88.358,353.718,87.769,354.307,87.042,354.307z"/>
		<path style="fill:#59A3F5;" d="M36.147,309.124c0,4.299-3.485,7.784-7.784,7.784c-4.299,0-7.784-3.485-7.784-7.784
			c0-4.299,3.485-7.784,7.784-7.784C32.662,301.34,36.147,304.825,36.147,309.124z"/>
		<text transform="matrix(1 0 0 1 39.0029 306.4238)" style="fill:#2D527B; font-family:'Montserrat-Bold'; font-size:6.4089px;">Lorem Ipsum</text>
		<g>
			<text transform="matrix(1 0 0 1 39.0034 311.8252)"><tspan x="0" y="0" style="fill:#A5CBF4; font-family:'Montserrat-Regular'; font-size:2.8804px;">Lorem ipsum dolor sit amet,</tspan><tspan x="0" y="3.456" style="fill:#A5CBF4; font-family:'Montserrat-Regular'; font-size:2.8804px;">ut ius quaestio perpetua.</tspan></text>
		</g>
	</g>
</g>
<g id="Designed_By_Freepik">
	<g>
		<g id="XMLID_319_">
			<g id="XMLID_338_">
				<path id="XMLID_346_" style="fill:#1D262D;" d="M260.104,465.466c-0.433,0.442-0.804,0.931-1.108,1.452l-0.466-0.24
					c-0.066-0.298-0.349-0.503-0.658-0.467c-0.331,0.039-0.568,0.339-0.529,0.67c0.039,0.331,0.339,0.568,0.67,0.529
					c0.065-0.008,0.127-0.026,0.184-0.053l0.451,0.234c-0.251,0.554-0.433,1.139-0.539,1.744l0.746,0.131
					c0.23-1.306,0.85-2.506,1.792-3.472L260.104,465.466z"/>
				<path id="XMLID_345_" style="fill:#1D262D;" d="M265.592,463.163c-0.171,0-0.341,0.007-0.51,0.018l-0.073-0.626
					c0.188-0.149,0.296-0.39,0.266-0.645c-0.046-0.394-0.402-0.675-0.795-0.629c-0.394,0.047-0.675,0.402-0.629,0.796
					c0.03,0.254,0.189,0.461,0.405,0.564l0.073,0.624c-0.714,0.116-1.403,0.332-2.06,0.647l0.327,0.684
					c0.934-0.447,1.941-0.673,2.995-0.673c0.496,0,0.993,0.053,1.475,0.157l0.161-0.741
					C266.692,463.223,266.143,463.163,265.592,463.163z"/>
				<path id="XMLID_344_" style="fill:#1D262D;" d="M272.194,465.711c0.331-0.041,0.566-0.342,0.525-0.673
					c-0.04-0.331-0.342-0.565-0.672-0.525c-0.31,0.038-0.535,0.304-0.53,0.608l-0.416,0.363c-0.418-0.43-0.89-0.813-1.408-1.139
					l-0.403,0.641c1.134,0.715,2.02,1.727,2.563,2.926l0.69-0.313c-0.251-0.555-0.567-1.072-0.942-1.545l0.402-0.352
					C272.064,465.716,272.129,465.719,272.194,465.711z"/>
				<path id="XMLID_343_" style="fill:#1D262D;" d="M265.044,473.372c-0.386,0.023-0.774,0.034-1.157,0.034
					c-0.88,0-1.732-0.061-2.478-0.179c-0.391-0.063-0.847-0.155-1.27-0.292c1.046,1.86,3.069,3.125,5.389,3.125
					c2.855,0,5.262-1.916,5.949-4.504c-0.682,0.449-1.506,0.825-2.459,1.123C267.839,473.047,266.464,473.286,265.044,473.372z"/>
				<path id="XMLID_339_" style="fill:#1D262D;" d="M265.592,464.68c-3.353,0-6.079,2.666-6.079,5.943
					c0,0.426,0.046,0.849,0.137,1.262c0.674,0.482,2.706,0.89,5.348,0.73c2.879-0.173,5.297-0.957,6.672-2.158
					c-0.005-0.195-0.021-0.391-0.045-0.582C271.244,466.913,268.65,464.68,265.592,464.68z M263.433,471.194
					c-1.021,0-1.85-0.83-1.85-1.85c0-1.021,0.829-1.85,1.85-1.85c1.02,0,1.85,0.829,1.85,1.85
					C265.282,470.364,264.452,471.194,263.433,471.194z M268.17,470.286c-0.75,0-1.36-0.61-1.36-1.36s0.61-1.36,1.36-1.36
					s1.36,0.61,1.36,1.36S268.92,470.286,268.17,470.286z"/>
			</g>
			<path id="XMLID_336_" style="fill:#1D262D;" d="M281.596,466.547c-0.295-0.116-0.806-0.309-1.383-0.237
				c-0.551,0.068-0.844,0.341-0.844,1.007v0.865h2.228v1.718h-2.228v5.454h-1.932v-5.454h-1.34v-1.718h1.34v-0.888
				c0-1.681,0.896-2.783,2.568-2.783c0.642,0,1.157,0.122,1.59,0.309V466.547z"/>
			<path id="XMLID_334_" style="fill:#1D262D;" d="M286.298,469.879c-0.177-0.03-0.357-0.047-0.526-0.047
				c-0.895,0-1.51,0.548-1.51,1.614v3.907h-1.932v-7.172h1.873v0.785c0.451-0.674,1.14-0.978,2.021-0.978
				c0.414,0,0.848,0.128,1.094,0.337L286.298,469.879z"/>
			<path id="XMLID_331_" style="fill:#1D262D;" d="M293.965,471.757c0,0.222-0.015,0.488-0.037,0.651h-5.084
				c0.207,1.036,0.933,1.487,1.843,1.487c0.621,0,1.295-0.251,1.814-0.688l1.132,1.243c-0.813,0.747-1.85,1.088-3.057,1.088
				c-2.198,0-3.723-1.495-3.723-3.753c0-2.257,1.481-3.797,3.627-3.797C292.544,467.989,293.958,469.522,293.965,471.757z
				 M288.851,471.091h3.175c-0.177-0.918-0.732-1.436-1.561-1.436C289.554,469.654,289.021,470.202,288.851,471.091z"/>
			<path id="XMLID_328_" style="fill:#1D262D;" d="M301.618,471.757c0,0.222-0.015,0.488-0.037,0.651h-5.084
				c0.207,1.036,0.933,1.487,1.843,1.487c0.621,0,1.295-0.251,1.814-0.688l1.132,1.243c-0.814,0.747-1.851,1.088-3.057,1.088
				c-2.198,0-3.723-1.495-3.723-3.753c0-2.257,1.48-3.797,3.626-3.797C300.197,467.989,301.611,469.522,301.618,471.757z
				 M296.504,471.091h3.176c-0.178-0.918-0.733-1.436-1.563-1.436C297.207,469.654,296.674,470.202,296.504,471.091z"/>
			<path id="XMLID_325_" style="fill:#1D262D;" d="M309.964,471.765c0,2.153-1.495,3.775-3.471,3.775
				c-0.963,0-1.644-0.378-2.109-0.933v3.708h-1.925v-10.133h1.888v0.792c0.466-0.585,1.154-0.984,2.139-0.984
				C308.469,467.989,309.964,469.61,309.964,471.765z M304.287,471.765c0,1.132,0.748,1.976,1.843,1.976
				c1.14,0,1.851-0.881,1.851-1.976c0-1.096-0.711-1.977-1.851-1.977C305.035,469.788,304.287,470.632,304.287,471.765z"/>
			<path id="XMLID_322_" style="fill:#1D262D;" d="M313.067,465.836c0,0.695-0.54,1.229-1.235,1.229c-0.696,0-1.23-0.533-1.23-1.229
				c0-0.696,0.533-1.244,1.23-1.244C312.527,464.592,313.067,465.14,313.067,465.836z M312.809,475.353h-1.932v-7.172h1.932V475.353
				z"/>
			<path id="XMLID_320_" style="fill:#1D262D;" d="M316.032,470.735l2.701-2.554h2.369l-3.479,3.375l3.501,3.797h-2.376
				l-2.716-2.901v2.901h-1.932v-10.657h1.932V470.735z"/>
		</g>
		<g>
			<path style="fill:#1D262D;" d="M184.413,475.289v-1.055c-0.527,0.718-1.392,1.23-2.388,1.23c-1.846,0-3.149-1.406-3.149-3.706
				c0-2.256,1.289-3.721,3.149-3.721c0.952,0,1.816,0.469,2.388,1.245v-3.765h1.099v9.771H184.413z M184.413,473.37v-3.208
				c-0.396-0.615-1.245-1.143-2.124-1.143c-1.421,0-2.27,1.172-2.27,2.739c0,1.567,0.85,2.725,2.27,2.725
				C183.167,474.483,184.017,473.985,184.413,473.37z"/>
			<path style="fill:#1D262D;" d="M186.932,471.744c0-2.051,1.465-3.706,3.486-3.706c2.139,0,3.398,1.67,3.398,3.794v0.278h-5.727
				c0.088,1.333,1.025,2.446,2.549,2.446c0.806,0,1.626-0.322,2.183-0.894l0.527,0.718c-0.703,0.703-1.655,1.084-2.813,1.084
				C188.44,475.465,186.932,473.956,186.932,471.744z M190.403,468.946c-1.509,0-2.256,1.274-2.314,2.358h4.643
				C192.718,470.25,192.015,468.946,190.403,468.946z"/>
			<path style="fill:#1D262D;" d="M194.607,474.352l0.571-0.791c0.469,0.542,1.362,1.011,2.329,1.011c1.084,0,1.67-0.513,1.67-1.216
				c0-1.714-4.38-0.659-4.38-3.281c0-1.099,0.952-2.036,2.637-2.036c1.201,0,2.051,0.454,2.622,1.025l-0.513,0.762
				c-0.424-0.513-1.201-0.894-2.109-0.894c-0.967,0-1.567,0.483-1.567,1.113c0,1.553,4.379,0.527,4.379,3.281
				c0,1.186-0.952,2.139-2.783,2.139C196.306,475.465,195.325,475.113,194.607,474.352z"/>
			<path style="fill:#1D262D;" d="M201.477,466.471c0-0.41,0.337-0.747,0.732-0.747c0.41,0,0.747,0.337,0.747,0.747
				c0,0.41-0.337,0.732-0.747,0.732C201.814,467.203,201.477,466.881,201.477,466.471z M201.667,475.289v-7.075h1.099v7.075H201.667
				z"/>
			<path style="fill:#1D262D;" d="M204.582,477.105l0.557-0.82c0.586,0.703,1.289,0.967,2.3,0.967c1.172,0,2.27-0.571,2.27-2.124
				v-1.011c-0.512,0.718-1.376,1.26-2.373,1.26c-1.845,0-3.149-1.377-3.149-3.662c0-2.271,1.289-3.677,3.149-3.677
				c0.952,0,1.802,0.469,2.373,1.245v-1.069h1.099v6.87c0,2.344-1.641,3.076-3.369,3.076
				C206.237,478.16,205.417,477.926,204.582,477.105z M209.708,473.253v-3.091c-0.381-0.615-1.23-1.143-2.109-1.143
				c-1.421,0-2.271,1.128-2.271,2.695c0,1.553,0.849,2.695,2.271,2.695C208.478,474.41,209.328,473.868,209.708,473.253z"/>
			<path style="fill:#1D262D;" d="M217.413,475.289v-4.629c0-1.245-0.629-1.641-1.582-1.641c-0.865,0-1.685,0.527-2.095,1.099v5.171
				h-1.099v-7.075h1.099v1.025c0.498-0.586,1.464-1.201,2.519-1.201c1.48,0,2.256,0.747,2.256,2.285v4.966H217.413z"/>
			<path style="fill:#1D262D;" d="M219.933,471.744c0-2.051,1.465-3.706,3.486-3.706c2.138,0,3.399,1.67,3.399,3.794v0.278h-5.728
				c0.088,1.333,1.025,2.446,2.549,2.446c0.806,0,1.626-0.322,2.183-0.894l0.527,0.718c-0.703,0.703-1.655,1.084-2.813,1.084
				C221.441,475.465,219.933,473.956,219.933,471.744z M223.404,468.946c-1.509,0-2.256,1.274-2.314,2.358h4.643
				C225.718,470.25,225.015,468.946,223.404,468.946z"/>
			<path style="fill:#1D262D;" d="M233.35,475.289v-1.055c-0.527,0.718-1.392,1.23-2.388,1.23c-1.845,0-3.149-1.406-3.149-3.706
				c0-2.256,1.289-3.721,3.149-3.721c0.952,0,1.817,0.469,2.388,1.245v-3.765h1.098v9.771H233.35z M233.35,473.37v-3.208
				c-0.396-0.615-1.245-1.143-2.124-1.143c-1.421,0-2.27,1.172-2.27,2.739c0,1.567,0.85,2.725,2.27,2.725
				C232.105,474.483,232.954,473.985,233.35,473.37z"/>
			<path style="fill:#1D262D;" d="M239.692,475.289v-9.771h1.099v3.765c0.572-0.776,1.421-1.245,2.388-1.245
				c1.846,0,3.149,1.465,3.149,3.721c0,2.3-1.304,3.706-3.149,3.706c-0.996,0-1.86-0.513-2.388-1.23v1.055H239.692z M242.9,474.483
				c1.436,0,2.286-1.157,2.286-2.725c0-1.567-0.85-2.739-2.286-2.739c-0.864,0-1.729,0.527-2.109,1.143v3.208
				C241.171,473.985,242.036,474.483,242.9,474.483z"/>
			<path style="fill:#1D262D;" d="M247.528,477.061c0.161,0.073,0.425,0.117,0.601,0.117c0.483,0,0.805-0.161,1.055-0.747
				l0.468-1.069l-2.959-7.148h1.187l2.358,5.801l2.344-5.801h1.201l-3.545,8.511c-0.425,1.025-1.143,1.421-2.08,1.436
				c-0.234,0-0.601-0.044-0.806-0.103L247.528,477.061z"/>
		</g>
	</g>
</g>
</svg>
