<?xml version="1.0" encoding="UTF-8"?>
<svg id="Layer_2" data-name="Layer 2" xmlns="http://www.w3.org/2000/svg" viewBox="0 0 2382.91 2379.46">
  <defs>
    <style>
      .cls-1 {
        fill: #ffd300;
      }
    </style>
  </defs>
  <g id="Layer_1-2" data-name="Layer 1">
    <path d="M1622.59,79.81c685.91,265.29,972.07,1091.44,588.78,1726.27-336.47,557.28-1073.19,742.13-1633.88,403.77C-32.84,1841.54-189.29,1024.14,252.48,457.19,572.79,46.11,1133.57-109.33,1622.59,79.81ZM1718.54,281.82C1170.69-36.97,466.74,205.21,223.32,782.03-3.98,1320.63,255.92,1942.21,792.54,2160.8c498.16,202.93,1058.29.52,1318.15-463.3,280.08-499.9,97.5-1130.74-392.16-1415.68Z"/>
    <path class="cls-1" d="M1950.32,1131.03c.99.21,5.43,3.07,6,4,3.3,132.04-.91,264.83.91,397.09.37,26.52,4.98,44.66-14.88,66.93-33.72,37.81-127.87,73.16-176.62,85.38-131.42,32.97-283.96,12.2-406.83-41.98-159.33-70.27-270.84-200.38-399.15-311.3-64.56-55.81-138.97-117.07-213.45-158.09-33.66-18.54-68.83-36.97-107.82-39.81-3.37.83-4.96,16.83-5.23,20.71-1.69,24.03,1.94,48.36,2.16,72,.51,54.01.29,108.16.01,162.18-.12,22.93-4.64,53.3.1,75.71s19.15,24.75,33.83,38.17c49.8,45.51,61.01,131.15,26.29,188.36-59.07,97.34-207.23,102.54-261.04-3.61-28.67-56.57-25.28-117.04,14.78-166.67,8.26-10.23,28.43-25.78,33.81-34.64,12.72-20.96,3.93-74.1,10.21-99.33,3.78-123.14-8.11-247.31-.06-370.06.86-13.18.08-26.86,15.11-28.89,32.49-4.39,86.84-4.31,119.96-2.22,144.34,9.09,306.48,131.24,411.28,224.26,183.5,162.88,335.67,355.92,608.7,345.92,40.93-1.5,104.45-10.39,140.69-29.31,15.37-8.02,22.7-13.41,24.29-31.71,5.82-67.03-4.57-142.25.02-210.16.03-5.58-3.35-9.02-9-9l-285.1-.9-4.08-7.92c3.25-39-3.99-83.99-.05-122.22.58-5.65,2.41-7.97,4.14-12.87h431Z"/>
    <path class="cls-1" d="M890.47,741.9c83.1,49.88,142.25,124.1,211.93,189.08,55.64,69.98,118.32,134.8,170.37,207.59,10.79,32.38,2.49,65.18,4.57,97.43,1.92,29.78,11.79,59.11,9.97,89.03-3.84,3.76-37.08-18-42.41-22.11-86.74-66.85-167.68-176.71-239.7-260.31-45.78-53.15-85.51-98.5-142.06-142.41-59.79-46.41-121.42-84.06-200.69-73.05-3.25.45-10.35,3.1-11.79,6.34-5.78,13.01-6.58,70.58-13.32,74.55l-140.03,4.99c.85-13.97-1.18-29.08.12-42.9,1.47-15.69,5.57-39.11,8.43-55.57,12.96-74.6,25.92-99.52,101.04-118.96,104.8-27.12,191.73-8.83,283.58,46.3Z"/>
    <path class="cls-1" d="M1920.2,658.2c36.19,33.77,52.22,86.28,44.53,135.24-20.82,132.46-189.88,167.34-270.25,65.42-5.52-6.99-14.3-26.29-22.21-27.79-5.92-1.12-21.3-.54-27.92-.01-107.71,8.62-242.39,12.77-306.64,115.36-16.18,25.83-24.92,55.22-39.28,80.72-1.67,2.97-3.34,5.76-6.11,7.86-23.42-16.49-37.82-40.57-55.08-62.42-6.4-8.1-15.82-17.04-21.84-25.09-3.65-4.88-20.87-28.47-21.73-31.98-2.48-10.04,19.33-41.82,26.02-51.11,27.49-38.2,71.38-80.27,111.33-105.11,104-64.65,233.6-67.87,352.89-68.67,6.24-1.82,16.77-21.31,22.1-26.91,57.67-60.55,153.65-62,214.2-5.5Z"/>
  </g>
</svg>